{
	"patcher" : 	{
		"fileversion" : 1,
		"appversion" : 		{
			"major" : 6,
			"minor" : 1,
			"revision" : 9,
			"architecture" : "x86"
		}
,
		"rect" : [ 611.0, 66.0, 801.0, 931.0 ],
		"bglocked" : 0,
		"openinpresentation" : 0,
		"default_fontsize" : 12.0,
		"default_fontface" : 0,
		"default_fontname" : "Arial",
		"gridonopen" : 0,
		"gridsize" : [ 15.0, 15.0 ],
		"gridsnaponopen" : 0,
		"statusbarvisible" : 2,
		"toolbarvisible" : 1,
		"boxanimatetime" : 200,
		"imprint" : 0,
		"enablehscroll" : 1,
		"enablevscroll" : 1,
		"devicewidth" : 0.0,
		"description" : "",
		"digest" : "",
		"tags" : "",
		"boxes" : [ 			{
				"box" : 				{
					"fontname" : "Arial",
					"fontsize" : 12.0,
					"id" : "obj-17",
					"maxclass" : "newobj",
					"numinlets" : 1,
					"numoutlets" : 1,
					"outlettype" : [ "" ],
					"patching_rect" : [ 165.0, 240.0, 74.0, 20.0 ],
					"text" : "prepend set"
				}

			}
, 			{
				"box" : 				{
					"fontname" : "Arial",
					"fontsize" : 12.0,
					"id" : "obj-2",
					"maxclass" : "newobj",
					"numinlets" : 1,
					"numoutlets" : 1,
					"outlettype" : [ "" ],
					"patching_rect" : [ 165.0, 210.0, 125.0, 20.0 ],
					"text" : "sprintf ---%itranspose"
				}

			}
, 			{
				"box" : 				{
					"fontname" : "Arial",
					"fontsize" : 12.0,
					"id" : "obj-1",
					"maxclass" : "newobj",
					"numinlets" : 1,
					"numoutlets" : 1,
					"outlettype" : [ "" ],
					"patching_rect" : [ 165.0, 180.0, 79.0, 20.0 ],
					"text" : "loadmess #1"
				}

			}
, 			{
				"box" : 				{
					"fontname" : "Arial",
					"fontsize" : 12.0,
					"id" : "obj-24",
					"maxclass" : "newobj",
					"numinlets" : 2,
					"numoutlets" : 1,
					"outlettype" : [ "int" ],
					"patching_rect" : [ 93.0, 496.0, 32.5, 20.0 ],
					"text" : "- 1"
				}

			}
, 			{
				"box" : 				{
					"fontname" : "Arial",
					"fontsize" : 12.0,
					"id" : "obj-23",
					"maxclass" : "newobj",
					"numinlets" : 1,
					"numoutlets" : 2,
					"outlettype" : [ "int", "int" ],
					"patching_rect" : [ 48.0, 436.0, 49.0, 20.0 ],
					"text" : "unpack"
				}

			}
, 			{
				"box" : 				{
					"color" : [ 0.8, 0.4, 1.0, 1.0 ],
					"fontname" : "Andale Mono",
					"fontsize" : 12.0,
					"id" : "obj-282",
					"maxclass" : "newobj",
					"numinlets" : 0,
					"numoutlets" : 1,
					"outlettype" : [ "" ],
					"patching_rect" : [ 48.0, 406.0, 133.0, 20.0 ],
					"text" : "r ---[gome]bounds"
				}

			}
, 			{
				"box" : 				{
					"color" : [ 1.0, 0.8, 0.4, 1.0 ],
					"fontname" : "Arial",
					"fontsize" : 12.0,
					"id" : "obj-4",
					"maxclass" : "newobj",
					"numinlets" : 3,
					"numoutlets" : 0,
					"patcher" : 					{
						"fileversion" : 1,
						"appversion" : 						{
							"major" : 6,
							"minor" : 1,
							"revision" : 9,
							"architecture" : "x86"
						}
,
						"rect" : [ 456.0, 143.0, 640.0, 480.0 ],
						"bglocked" : 0,
						"openinpresentation" : 0,
						"default_fontsize" : 12.0,
						"default_fontface" : 0,
						"default_fontname" : "Andale Mono",
						"gridonopen" : 0,
						"gridsize" : [ 18.0, 6.0 ],
						"gridsnaponopen" : 0,
						"statusbarvisible" : 2,
						"toolbarvisible" : 1,
						"boxanimatetime" : 200,
						"imprint" : 0,
						"enablehscroll" : 1,
						"enablevscroll" : 1,
						"devicewidth" : 0.0,
						"description" : "",
						"digest" : "",
						"tags" : "",
						"boxes" : [ 							{
								"box" : 								{
									"fontname" : "Andale Mono",
									"fontsize" : 12.0,
									"frgb" : 0.0,
									"id" : "obj-9",
									"linecount" : 6,
									"maxclass" : "comment",
									"numinlets" : 1,
									"numoutlets" : 0,
									"patching_rect" : [ 324.0, 264.0, 170.0, 87.0 ],
									"text" : "if there is still a currently lit cell (accum) then re-send the lit cell to the device, then wait for the natural note-off."
								}

							}
, 							{
								"box" : 								{
									"fontname" : "Andale Mono",
									"fontsize" : 12.0,
									"id" : "obj-7",
									"maxclass" : "newobj",
									"numinlets" : 1,
									"numoutlets" : 1,
									"outlettype" : [ "bang" ],
									"patching_rect" : [ 270.0, 318.0, 32.0, 20.0 ],
									"text" : "t b"
								}

							}
, 							{
								"box" : 								{
									"fontname" : "Andale Mono",
									"fontsize" : 12.0,
									"id" : "obj-6",
									"maxclass" : "newobj",
									"numinlets" : 2,
									"numoutlets" : 2,
									"outlettype" : [ "bang", "" ],
									"patching_rect" : [ 216.0, 282.0, 47.0, 20.0 ],
									"text" : "sel 0"
								}

							}
, 							{
								"box" : 								{
									"fontname" : "Andale Mono",
									"fontsize" : 12.0,
									"id" : "obj-5",
									"maxclass" : "newobj",
									"numinlets" : 2,
									"numoutlets" : 2,
									"outlettype" : [ "", "" ],
									"patching_rect" : [ 234.0, 360.0, 54.0, 20.0 ],
									"text" : "zl reg"
								}

							}
, 							{
								"box" : 								{
									"fontname" : "Andale Mono",
									"fontsize" : 12.0,
									"id" : "obj-4",
									"maxclass" : "newobj",
									"numinlets" : 3,
									"numoutlets" : 1,
									"outlettype" : [ "int" ],
									"patching_rect" : [ 216.0, 252.0, 61.0, 20.0 ],
									"text" : "accum 0"
								}

							}
, 							{
								"box" : 								{
									"color" : [ 0.8, 0.4, 1.0, 1.0 ],
									"fontname" : "Helvetica Neue",
									"fontsize" : 11.0,
									"id" : "obj-292",
									"maxclass" : "newobj",
									"numinlets" : 0,
									"numoutlets" : 1,
									"outlettype" : [ "" ],
									"patching_rect" : [ 216.0, 204.0, 118.0, 19.0 ],
									"text" : "r ---[gome]sosc-focus"
								}

							}
, 							{
								"box" : 								{
									"fontname" : "Arial",
									"fontsize" : 12.0,
									"id" : "obj-20",
									"maxclass" : "newobj",
									"numinlets" : 2,
									"numoutlets" : 1,
									"outlettype" : [ "float" ],
									"patching_rect" : [ 140.0, 100.0, 42.0, 20.0 ],
									"text" : "* 240."
								}

							}
, 							{
								"box" : 								{
									"fontname" : "Arial",
									"fontsize" : 9.0,
									"id" : "obj-48",
									"maxclass" : "newobj",
									"numinlets" : 2,
									"numoutlets" : 1,
									"outlettype" : [ "" ],
									"patching_rect" : [ 140.0, 190.0, 49.0, 17.0 ],
									"text" : "pipe 120"
								}

							}
, 							{
								"box" : 								{
									"fontname" : "Arial",
									"fontsize" : 9.0,
									"id" : "obj-49",
									"maxclass" : "newobj",
									"numinlets" : 1,
									"numoutlets" : 3,
									"outlettype" : [ "int", "int", "int" ],
									"patching_rect" : [ 125.0, 220.0, 46.0, 17.0 ],
									"text" : "t i 0 -1"
								}

							}
, 							{
								"box" : 								{
									"fontname" : "Arial",
									"fontsize" : 9.0,
									"id" : "obj-51",
									"maxclass" : "newobj",
									"numinlets" : 3,
									"numoutlets" : 1,
									"outlettype" : [ "" ],
									"patching_rect" : [ 110.0, 250.0, 48.0, 17.0 ],
									"text" : "pack i i i"
								}

							}
, 							{
								"box" : 								{
									"fontname" : "Arial",
									"fontsize" : 9.0,
									"id" : "obj-52",
									"maxclass" : "newobj",
									"numinlets" : 2,
									"numoutlets" : 1,
									"outlettype" : [ "" ],
									"patching_rect" : [ 110.0, 160.0, 49.0, 17.0 ],
									"text" : "pipe 120"
								}

							}
, 							{
								"box" : 								{
									"fontname" : "Arial",
									"fontsize" : 9.0,
									"id" : "obj-53",
									"maxclass" : "newobj",
									"numinlets" : 1,
									"numoutlets" : 3,
									"outlettype" : [ "int", "int", "int" ],
									"patching_rect" : [ 65.0, 220.0, 46.0, 17.0 ],
									"text" : "t i 1 1"
								}

							}
, 							{
								"box" : 								{
									"fontname" : "Arial",
									"fontsize" : 9.0,
									"id" : "obj-55",
									"maxclass" : "newobj",
									"numinlets" : 3,
									"numoutlets" : 1,
									"outlettype" : [ "" ],
									"patching_rect" : [ 50.0, 250.0, 48.0, 17.0 ],
									"text" : "pack i i i"
								}

							}
, 							{
								"box" : 								{
									"color" : [ 0.4, 0.8, 1.0, 1.0 ],
									"fontname" : "Arial",
									"fontsize" : 9.0,
									"id" : "obj-60",
									"maxclass" : "newobj",
									"numinlets" : 1,
									"numoutlets" : 0,
									"patching_rect" : [ 54.0, 432.0, 76.0, 17.0 ],
									"text" : "s ---gome_LEDs"
								}

							}
, 							{
								"box" : 								{
									"fontname" : "Arial",
									"fontsize" : 9.0,
									"frgb" : 0.0,
									"id" : "obj-91",
									"linecount" : 2,
									"maxclass" : "comment",
									"numinlets" : 1,
									"numoutlets" : 0,
									"patching_rect" : [ 126.0, 432.0, 99.0, 27.0 ],
									"text" : "light LEDs on playback"
								}

							}
, 							{
								"box" : 								{
									"comment" : "",
									"id" : "obj-1",
									"maxclass" : "inlet",
									"numinlets" : 0,
									"numoutlets" : 1,
									"outlettype" : [ "int" ],
									"patching_rect" : [ 75.0, 40.0, 25.0, 25.0 ]
								}

							}
, 							{
								"box" : 								{
									"comment" : "",
									"id" : "obj-2",
									"maxclass" : "inlet",
									"numinlets" : 0,
									"numoutlets" : 1,
									"outlettype" : [ "int" ],
									"patching_rect" : [ 97.5, 40.0, 25.0, 25.0 ]
								}

							}
, 							{
								"box" : 								{
									"comment" : "",
									"id" : "obj-3",
									"maxclass" : "inlet",
									"numinlets" : 0,
									"numoutlets" : 1,
									"outlettype" : [ "float" ],
									"patching_rect" : [ 140.0, 40.0, 25.0, 25.0 ]
								}

							}
 ],
						"lines" : [ 							{
								"patchline" : 								{
									"destination" : [ "obj-52", 0 ],
									"disabled" : 0,
									"hidden" : 0,
									"source" : [ "obj-1", 0 ]
								}

							}
, 							{
								"patchline" : 								{
									"destination" : [ "obj-55", 0 ],
									"disabled" : 0,
									"hidden" : 0,
									"source" : [ "obj-1", 0 ]
								}

							}
, 							{
								"patchline" : 								{
									"destination" : [ "obj-48", 0 ],
									"disabled" : 0,
									"hidden" : 0,
									"source" : [ "obj-2", 0 ]
								}

							}
, 							{
								"patchline" : 								{
									"destination" : [ "obj-53", 0 ],
									"disabled" : 0,
									"hidden" : 0,
									"source" : [ "obj-2", 0 ]
								}

							}
, 							{
								"patchline" : 								{
									"destination" : [ "obj-48", 1 ],
									"disabled" : 0,
									"hidden" : 0,
									"source" : [ "obj-20", 0 ]
								}

							}
, 							{
								"patchline" : 								{
									"destination" : [ "obj-52", 1 ],
									"disabled" : 0,
									"hidden" : 0,
									"source" : [ "obj-20", 0 ]
								}

							}
, 							{
								"patchline" : 								{
									"destination" : [ "obj-4", 0 ],
									"disabled" : 0,
									"hidden" : 0,
									"source" : [ "obj-292", 0 ]
								}

							}
, 							{
								"patchline" : 								{
									"destination" : [ "obj-20", 0 ],
									"disabled" : 0,
									"hidden" : 0,
									"source" : [ "obj-3", 0 ]
								}

							}
, 							{
								"patchline" : 								{
									"destination" : [ "obj-6", 0 ],
									"disabled" : 0,
									"hidden" : 0,
									"source" : [ "obj-4", 0 ]
								}

							}
, 							{
								"patchline" : 								{
									"destination" : [ "obj-49", 0 ],
									"disabled" : 0,
									"hidden" : 0,
									"source" : [ "obj-48", 0 ]
								}

							}
, 							{
								"patchline" : 								{
									"destination" : [ "obj-4", 1 ],
									"disabled" : 0,
									"hidden" : 0,
									"source" : [ "obj-49", 2 ]
								}

							}
, 							{
								"patchline" : 								{
									"destination" : [ "obj-51", 2 ],
									"disabled" : 0,
									"hidden" : 0,
									"source" : [ "obj-49", 1 ]
								}

							}
, 							{
								"patchline" : 								{
									"destination" : [ "obj-51", 1 ],
									"disabled" : 0,
									"hidden" : 0,
									"source" : [ "obj-49", 0 ]
								}

							}
, 							{
								"patchline" : 								{
									"destination" : [ "obj-60", 0 ],
									"disabled" : 0,
									"hidden" : 0,
									"source" : [ "obj-5", 0 ]
								}

							}
, 							{
								"patchline" : 								{
									"destination" : [ "obj-60", 0 ],
									"disabled" : 0,
									"hidden" : 0,
									"source" : [ "obj-51", 0 ]
								}

							}
, 							{
								"patchline" : 								{
									"destination" : [ "obj-51", 0 ],
									"disabled" : 0,
									"hidden" : 0,
									"source" : [ "obj-52", 0 ]
								}

							}
, 							{
								"patchline" : 								{
									"destination" : [ "obj-4", 1 ],
									"disabled" : 0,
									"hidden" : 0,
									"source" : [ "obj-53", 2 ]
								}

							}
, 							{
								"patchline" : 								{
									"destination" : [ "obj-55", 2 ],
									"disabled" : 0,
									"hidden" : 0,
									"source" : [ "obj-53", 1 ]
								}

							}
, 							{
								"patchline" : 								{
									"destination" : [ "obj-55", 1 ],
									"disabled" : 0,
									"hidden" : 0,
									"source" : [ "obj-53", 0 ]
								}

							}
, 							{
								"patchline" : 								{
									"destination" : [ "obj-5", 1 ],
									"disabled" : 0,
									"hidden" : 0,
									"source" : [ "obj-55", 0 ]
								}

							}
, 							{
								"patchline" : 								{
									"destination" : [ "obj-60", 0 ],
									"disabled" : 0,
									"hidden" : 0,
									"source" : [ "obj-55", 0 ]
								}

							}
, 							{
								"patchline" : 								{
									"destination" : [ "obj-7", 0 ],
									"disabled" : 0,
									"hidden" : 0,
									"source" : [ "obj-6", 1 ]
								}

							}
, 							{
								"patchline" : 								{
									"destination" : [ "obj-5", 0 ],
									"disabled" : 0,
									"hidden" : 0,
									"source" : [ "obj-7", 0 ]
								}

							}
 ]
					}
,
					"patching_rect" : [ 483.0, 571.0, 46.0, 20.0 ],
					"saved_object_attributes" : 					{
						"default_fontface" : 0,
						"default_fontname" : "Andale Mono",
						"default_fontsize" : 12.0,
						"description" : "",
						"digest" : "",
						"fontface" : 0,
						"fontname" : "Andale Mono",
						"fontsize" : 12.0,
						"globalpatchername" : "",
						"tags" : ""
					}
,
					"text" : "p leds"
				}

			}
, 			{
				"box" : 				{
					"color" : [ 0.4, 0.8, 1.0, 1.0 ],
					"fontname" : "Arial",
					"fontsize" : 12.0,
					"id" : "obj-19",
					"maxclass" : "newobj",
					"numinlets" : 1,
					"numoutlets" : 0,
					"patching_rect" : [ 255.0, 810.0, 128.0, 20.0 ],
					"text" : "s ---[gome]noteVelDur"
				}

			}
, 			{
				"box" : 				{
					"color" : [ 0.8, 0.4, 1.0, 1.0 ],
					"fontname" : "Arial",
					"fontsize" : 9.0,
					"id" : "obj-5",
					"maxclass" : "newobj",
					"numinlets" : 0,
					"numoutlets" : 1,
					"outlettype" : [ "" ],
					"patching_rect" : [ 210.0, 345.0, 81.0, 17.0 ],
					"text" : "r ---[gome]pattern"
				}

			}
, 			{
				"box" : 				{
					"color" : [ 0.8, 0.4, 1.0, 1.0 ],
					"fontname" : "Arial",
					"fontsize" : 9.0,
					"id" : "obj-7",
					"maxclass" : "newobj",
					"numinlets" : 0,
					"numoutlets" : 1,
					"outlettype" : [ "" ],
					"patching_rect" : [ 364.0, 20.0, 70.0, 17.0 ],
					"text" : "r ---[gome]hold"
				}

			}
, 			{
				"box" : 				{
					"color" : [ 1.0, 0.8, 0.4, 1.0 ],
					"fontname" : "Arial",
					"fontsize" : 9.0,
					"id" : "obj-8",
					"maxclass" : "newobj",
					"numinlets" : 2,
					"numoutlets" : 1,
					"outlettype" : [ "" ],
					"patcher" : 					{
						"fileversion" : 1,
						"appversion" : 						{
							"major" : 6,
							"minor" : 1,
							"revision" : 9,
							"architecture" : "x86"
						}
,
						"rect" : [ 860.0, 364.0, 820.0, 871.0 ],
						"bglocked" : 0,
						"openinpresentation" : 0,
						"default_fontsize" : 12.0,
						"default_fontface" : 0,
						"default_fontname" : "Arial",
						"gridonopen" : 0,
						"gridsize" : [ 15.0, 15.0 ],
						"gridsnaponopen" : 0,
						"statusbarvisible" : 2,
						"toolbarvisible" : 1,
						"boxanimatetime" : 200,
						"imprint" : 0,
						"enablehscroll" : 1,
						"enablevscroll" : 1,
						"devicewidth" : 0.0,
						"description" : "",
						"digest" : "",
						"tags" : "",
						"boxes" : [ 							{
								"box" : 								{
									"fontname" : "Arial",
									"fontsize" : 9.0,
									"id" : "obj-3",
									"maxclass" : "newobj",
									"numinlets" : 1,
									"numoutlets" : 3,
									"outlettype" : [ "", "int", "int" ],
									"patching_rect" : [ 175.0, 446.0, 40.0, 17.0 ],
									"text" : "change"
								}

							}
, 							{
								"box" : 								{
									"comment" : "",
									"id" : "obj-4",
									"maxclass" : "outlet",
									"numinlets" : 1,
									"numoutlets" : 0,
									"patching_rect" : [ 211.0, 511.0, 15.0, 15.0 ]
								}

							}
, 							{
								"box" : 								{
									"comment" : "",
									"id" : "obj-5",
									"maxclass" : "inlet",
									"numinlets" : 0,
									"numoutlets" : 1,
									"outlettype" : [ "" ],
									"patching_rect" : [ 227.0, 37.0, 15.0, 15.0 ]
								}

							}
, 							{
								"box" : 								{
									"comment" : "",
									"id" : "obj-6",
									"maxclass" : "inlet",
									"numinlets" : 0,
									"numoutlets" : 1,
									"outlettype" : [ "int" ],
									"patching_rect" : [ 112.0, 36.0, 15.0, 15.0 ]
								}

							}
, 							{
								"box" : 								{
									"fontname" : "Arial",
									"fontsize" : 9.0,
									"id" : "obj-7",
									"maxclass" : "newobj",
									"numinlets" : 2,
									"numoutlets" : 2,
									"outlettype" : [ "bang", "" ],
									"patching_rect" : [ 431.0, 307.0, 32.0, 17.0 ],
									"text" : "sel 1"
								}

							}
, 							{
								"box" : 								{
									"fontname" : "Arial",
									"fontsize" : 9.0,
									"id" : "obj-8",
									"maxclass" : "newobj",
									"numinlets" : 2,
									"numoutlets" : 1,
									"outlettype" : [ "int" ],
									"patching_rect" : [ 204.0, 301.0, 27.0, 17.0 ],
									"text" : "i"
								}

							}
, 							{
								"box" : 								{
									"fontname" : "Arial",
									"fontsize" : 9.0,
									"id" : "obj-9",
									"maxclass" : "newobj",
									"numinlets" : 2,
									"numoutlets" : 1,
									"outlettype" : [ "int" ],
									"patching_rect" : [ 388.0, 309.0, 27.0, 17.0 ],
									"text" : "+ 1"
								}

							}
, 							{
								"box" : 								{
									"fontname" : "Arial",
									"fontsize" : 9.0,
									"id" : "obj-10",
									"maxclass" : "newobj",
									"numinlets" : 3,
									"numoutlets" : 1,
									"outlettype" : [ "" ],
									"patching_rect" : [ 118.0, 358.0, 49.0, 17.0 ],
									"text" : "switch 2"
								}

							}
, 							{
								"box" : 								{
									"fontname" : "Arial",
									"fontsize" : 9.0,
									"id" : "obj-11",
									"maxclass" : "newobj",
									"numinlets" : 2,
									"numoutlets" : 2,
									"outlettype" : [ "bang", "" ],
									"patching_rect" : [ 21.0, 198.0, 32.0, 17.0 ],
									"text" : "sel 1"
								}

							}
, 							{
								"box" : 								{
									"fontname" : "Arial",
									"fontsize" : 9.0,
									"id" : "obj-12",
									"maxclass" : "newobj",
									"numinlets" : 2,
									"numoutlets" : 1,
									"outlettype" : [ "int" ],
									"patching_rect" : [ 84.0, 209.0, 27.0, 17.0 ],
									"text" : ">="
								}

							}
, 							{
								"box" : 								{
									"fontname" : "Arial",
									"fontsize" : 9.0,
									"id" : "obj-13",
									"maxclass" : "newobj",
									"numinlets" : 2,
									"numoutlets" : 1,
									"outlettype" : [ "int" ],
									"patching_rect" : [ 211.0, 205.0, 46.0, 17.0 ],
									"text" : "|"
								}

							}
, 							{
								"box" : 								{
									"fontname" : "Arial",
									"fontsize" : 9.0,
									"id" : "obj-14",
									"maxclass" : "newobj",
									"numinlets" : 1,
									"numoutlets" : 2,
									"outlettype" : [ "bang", "int" ],
									"patching_rect" : [ 247.0, 152.0, 27.0, 17.0 ],
									"text" : "t b i"
								}

							}
, 							{
								"box" : 								{
									"fontname" : "Arial",
									"fontsize" : 9.0,
									"id" : "obj-15",
									"maxclass" : "newobj",
									"numinlets" : 1,
									"numoutlets" : 2,
									"outlettype" : [ "int", "bang" ],
									"patching_rect" : [ 211.0, 152.0, 27.0, 17.0 ],
									"text" : "t i b"
								}

							}
, 							{
								"box" : 								{
									"fontname" : "Arial",
									"fontsize" : 9.0,
									"id" : "obj-16",
									"maxclass" : "newobj",
									"numinlets" : 2,
									"numoutlets" : 1,
									"outlettype" : [ "int" ],
									"patching_rect" : [ 247.0, 181.0, 27.0, 17.0 ],
									"text" : "i"
								}

							}
, 							{
								"box" : 								{
									"fontname" : "Arial",
									"fontsize" : 9.0,
									"id" : "obj-17",
									"maxclass" : "newobj",
									"numinlets" : 2,
									"numoutlets" : 1,
									"outlettype" : [ "int" ],
									"patching_rect" : [ 211.0, 181.0, 27.0, 17.0 ],
									"text" : "i"
								}

							}
, 							{
								"box" : 								{
									"fontname" : "Arial",
									"fontsize" : 9.0,
									"id" : "obj-18",
									"maxclass" : "newobj",
									"numinlets" : 2,
									"numoutlets" : 2,
									"outlettype" : [ "bang", "" ],
									"patching_rect" : [ 445.0, 182.0, 32.0, 17.0 ],
									"text" : "sel 1"
								}

							}
, 							{
								"box" : 								{
									"fontname" : "Arial",
									"fontsize" : 9.0,
									"id" : "obj-19",
									"maxclass" : "newobj",
									"numinlets" : 2,
									"numoutlets" : 2,
									"outlettype" : [ "bang", "" ],
									"patching_rect" : [ 345.0, 240.0, 32.0, 17.0 ],
									"text" : "sel 0"
								}

							}
, 							{
								"box" : 								{
									"fontname" : "Arial",
									"fontsize" : 9.0,
									"id" : "obj-20",
									"maxclass" : "newobj",
									"numinlets" : 2,
									"numoutlets" : 1,
									"outlettype" : [ "int" ],
									"patching_rect" : [ 344.0, 208.0, 27.0, 17.0 ],
									"text" : "&"
								}

							}
 ],
						"lines" : [ 							{
								"patchline" : 								{
									"destination" : [ "obj-3", 0 ],
									"disabled" : 0,
									"hidden" : 0,
									"source" : [ "obj-10", 0 ]
								}

							}
, 							{
								"patchline" : 								{
									"destination" : [ "obj-10", 1 ],
									"disabled" : 0,
									"hidden" : 0,
									"source" : [ "obj-11", 1 ]
								}

							}
, 							{
								"patchline" : 								{
									"destination" : [ "obj-10", 1 ],
									"disabled" : 0,
									"hidden" : 0,
									"source" : [ "obj-12", 0 ]
								}

							}
, 							{
								"patchline" : 								{
									"destination" : [ "obj-10", 2 ],
									"disabled" : 0,
									"hidden" : 0,
									"source" : [ "obj-13", 0 ]
								}

							}
, 							{
								"patchline" : 								{
									"destination" : [ "obj-8", 1 ],
									"disabled" : 0,
									"hidden" : 0,
									"source" : [ "obj-13", 0 ]
								}

							}
, 							{
								"patchline" : 								{
									"destination" : [ "obj-16", 0 ],
									"disabled" : 0,
									"hidden" : 0,
									"source" : [ "obj-14", 1 ]
								}

							}
, 							{
								"patchline" : 								{
									"destination" : [ "obj-17", 0 ],
									"disabled" : 0,
									"hidden" : 0,
									"source" : [ "obj-14", 0 ]
								}

							}
, 							{
								"patchline" : 								{
									"destination" : [ "obj-16", 0 ],
									"disabled" : 0,
									"hidden" : 0,
									"source" : [ "obj-15", 1 ]
								}

							}
, 							{
								"patchline" : 								{
									"destination" : [ "obj-17", 0 ],
									"disabled" : 0,
									"hidden" : 0,
									"source" : [ "obj-15", 0 ]
								}

							}
, 							{
								"patchline" : 								{
									"destination" : [ "obj-12", 1 ],
									"disabled" : 0,
									"hidden" : 0,
									"source" : [ "obj-16", 0 ]
								}

							}
, 							{
								"patchline" : 								{
									"destination" : [ "obj-13", 1 ],
									"disabled" : 0,
									"hidden" : 0,
									"source" : [ "obj-16", 0 ]
								}

							}
, 							{
								"patchline" : 								{
									"destination" : [ "obj-20", 1 ],
									"disabled" : 0,
									"hidden" : 0,
									"source" : [ "obj-16", 0 ]
								}

							}
, 							{
								"patchline" : 								{
									"destination" : [ "obj-11", 0 ],
									"disabled" : 0,
									"hidden" : 0,
									"source" : [ "obj-17", 0 ]
								}

							}
, 							{
								"patchline" : 								{
									"destination" : [ "obj-12", 0 ],
									"disabled" : 0,
									"hidden" : 0,
									"source" : [ "obj-17", 0 ]
								}

							}
, 							{
								"patchline" : 								{
									"destination" : [ "obj-13", 0 ],
									"disabled" : 0,
									"hidden" : 0,
									"source" : [ "obj-17", 0 ]
								}

							}
, 							{
								"patchline" : 								{
									"destination" : [ "obj-20", 0 ],
									"disabled" : 0,
									"hidden" : 0,
									"source" : [ "obj-17", 0 ]
								}

							}
, 							{
								"patchline" : 								{
									"destination" : [ "obj-9", 0 ],
									"disabled" : 0,
									"hidden" : 0,
									"source" : [ "obj-18", 1 ]
								}

							}
, 							{
								"patchline" : 								{
									"destination" : [ "obj-7", 0 ],
									"disabled" : 0,
									"hidden" : 0,
									"source" : [ "obj-19", 1 ]
								}

							}
, 							{
								"patchline" : 								{
									"destination" : [ "obj-9", 0 ],
									"disabled" : 0,
									"hidden" : 0,
									"source" : [ "obj-19", 1 ]
								}

							}
, 							{
								"patchline" : 								{
									"destination" : [ "obj-19", 0 ],
									"disabled" : 0,
									"hidden" : 0,
									"source" : [ "obj-20", 0 ]
								}

							}
, 							{
								"patchline" : 								{
									"destination" : [ "obj-4", 0 ],
									"disabled" : 0,
									"hidden" : 0,
									"source" : [ "obj-3", 0 ]
								}

							}
, 							{
								"patchline" : 								{
									"destination" : [ "obj-14", 0 ],
									"disabled" : 0,
									"hidden" : 0,
									"source" : [ "obj-5", 0 ]
								}

							}
, 							{
								"patchline" : 								{
									"destination" : [ "obj-18", 0 ],
									"disabled" : 0,
									"hidden" : 0,
									"source" : [ "obj-5", 0 ]
								}

							}
, 							{
								"patchline" : 								{
									"destination" : [ "obj-15", 0 ],
									"disabled" : 0,
									"hidden" : 0,
									"source" : [ "obj-6", 0 ]
								}

							}
, 							{
								"patchline" : 								{
									"destination" : [ "obj-8", 0 ],
									"disabled" : 0,
									"hidden" : 0,
									"source" : [ "obj-7", 0 ]
								}

							}
, 							{
								"patchline" : 								{
									"destination" : [ "obj-3", 0 ],
									"disabled" : 0,
									"hidden" : 0,
									"source" : [ "obj-8", 0 ]
								}

							}
, 							{
								"patchline" : 								{
									"destination" : [ "obj-10", 0 ],
									"disabled" : 0,
									"hidden" : 0,
									"source" : [ "obj-9", 0 ]
								}

							}
 ]
					}
,
					"patching_rect" : [ 315.0, 45.0, 63.0, 17.0 ],
					"saved_object_attributes" : 					{
						"default_fontface" : 0,
						"default_fontname" : "Arial",
						"default_fontsize" : 12.0,
						"description" : "",
						"digest" : "",
						"fontface" : 0,
						"fontname" : "Arial",
						"fontsize" : 12.0,
						"globalpatchername" : "",
						"tags" : ""
					}
,
					"text" : "p hold_logic"
				}

			}
, 			{
				"box" : 				{
					"fontname" : "Arial",
					"fontsize" : 9.0,
					"id" : "obj-10",
					"maxclass" : "newobj",
					"numinlets" : 2,
					"numoutlets" : 1,
					"outlettype" : [ "int" ],
					"patching_rect" : [ 292.0, 504.0, 27.0, 17.0 ],
					"text" : "- 1"
				}

			}
, 			{
				"box" : 				{
					"fontname" : "Arial",
					"fontsize" : 9.0,
					"id" : "obj-11",
					"maxclass" : "newobj",
					"numinlets" : 2,
					"numoutlets" : 1,
					"outlettype" : [ "int" ],
					"patching_rect" : [ 291.0, 550.0, 27.0, 17.0 ],
					"text" : "+ 1"
				}

			}
, 			{
				"box" : 				{
					"color" : [ 0.8, 0.4, 1.0, 1.0 ],
					"fontname" : "Arial",
					"fontsize" : 9.0,
					"id" : "obj-12",
					"maxclass" : "newobj",
					"numinlets" : 0,
					"numoutlets" : 1,
					"outlettype" : [ "" ],
					"patching_rect" : [ 348.0, 211.0, 81.0, 17.0 ],
					"text" : "r ---[gome]pattern"
				}

			}
, 			{
				"box" : 				{
					"fontname" : "Arial",
					"fontsize" : 9.0,
					"id" : "obj-13",
					"maxclass" : "newobj",
					"numinlets" : 2,
					"numoutlets" : 1,
					"outlettype" : [ "int" ],
					"patching_rect" : [ 332.0, 237.0, 27.0, 17.0 ],
					"text" : "+"
				}

			}
, 			{
				"box" : 				{
					"fontname" : "Arial",
					"fontsize" : 9.0,
					"id" : "obj-14",
					"maxclass" : "newobj",
					"numinlets" : 1,
					"numoutlets" : 1,
					"outlettype" : [ "int" ],
					"patching_rect" : [ 245.0, 549.0, 23.0, 17.0 ],
					"text" : "abs"
				}

			}
, 			{
				"box" : 				{
					"fontname" : "Arial",
					"fontsize" : 9.0,
					"id" : "obj-15",
					"maxclass" : "newobj",
					"numinlets" : 1,
					"numoutlets" : 1,
					"outlettype" : [ "int" ],
					"patching_rect" : [ 292.0, 571.0, 23.0, 17.0 ],
					"text" : "abs"
				}

			}
, 			{
				"box" : 				{
					"coll_data" : 					{
						"count" : 176,
						"data" : [ 							{
								"key" : 0,
								"value" : [ 0, 3, 1, 6, 4 ]
							}
, 							{
								"key" : 1,
								"value" : [ 1, 3, 1, 6, 3 ]
							}
, 							{
								"key" : 2,
								"value" : [ 2, 3, 1, 6, 4 ]
							}
, 							{
								"key" : 3,
								"value" : [ 3, 3, 1, 6, 6 ]
							}
, 							{
								"key" : 4,
								"value" : [ 4, 3, 1, 6, 4 ]
							}
, 							{
								"key" : 5,
								"value" : [ 5, 3, 1, 6, 2 ]
							}
, 							{
								"key" : 6,
								"value" : [ 6, 3, 1, 6, 4 ]
							}
, 							{
								"key" : 7,
								"value" : [ 7, 3, 1, 6, 4 ]
							}
, 							{
								"key" : 8,
								"value" : [ 7, 4, 1, 6, 4 ]
							}
, 							{
								"key" : 9,
								"value" : [ 6, 4, 1, 6, 4 ]
							}
, 							{
								"key" : 10,
								"value" : [ 5, 4, 1, 6, 4 ]
							}
, 							{
								"key" : 11,
								"value" : [ 4, 4, 1, 6, 4 ]
							}
, 							{
								"key" : 12,
								"value" : [ 3, 4, 1, 6, 4 ]
							}
, 							{
								"key" : 13,
								"value" : [ 2, 4, 1, 6, 4 ]
							}
, 							{
								"key" : 14,
								"value" : [ 1, 4, 1, 6, 4 ]
							}
, 							{
								"key" : 15,
								"value" : [ 0, 4, 1, 6, 4 ]
							}
, 							{
								"key" : 16,
								"value" : [ 9, 4, 1, 6, 2 ]
							}
, 							{
								"key" : 17,
								"value" : [ 8, 4, 1, 6, 5 ]
							}
, 							{
								"key" : 18,
								"value" : [ 7, 4, 1, 6, 6 ]
							}
, 							{
								"key" : 19,
								"value" : [ 6, 4, 1, 6, 4 ]
							}
, 							{
								"key" : 20,
								"value" : [ 5, 4, 1, 6, 4 ]
							}
, 							{
								"key" : 21,
								"value" : [ 4, 4, 1, 6, 3 ]
							}
, 							{
								"key" : 22,
								"value" : [ 3, 4, 1, 6, 2 ]
							}
, 							{
								"key" : 23,
								"value" : [ 2, 4, 1, 6, 5 ]
							}
, 							{
								"key" : 24,
								"value" : [ 2, 5, 1, 6, 5 ]
							}
, 							{
								"key" : 25,
								"value" : [ 3, 5, 1, 6, 6 ]
							}
, 							{
								"key" : 26,
								"value" : [ 4, 5, 1, 6, 1 ]
							}
, 							{
								"key" : 27,
								"value" : [ 5, 5, 1, 6, 5 ]
							}
, 							{
								"key" : 28,
								"value" : [ 6, 5, 1, 6, 5 ]
							}
, 							{
								"key" : 29,
								"value" : [ 7, 5, 1, 6, 4 ]
							}
, 							{
								"key" : 30,
								"value" : [ 8, 5, 1, 6, 7 ]
							}
, 							{
								"key" : 31,
								"value" : [ 9, 5, 1, 6, 6 ]
							}
, 							{
								"key" : 32,
								"value" : [ 6, 4, 1, 6, 1 ]
							}
, 							{
								"key" : 33,
								"value" : [ 7, 4, 1, 6, 6 ]
							}
, 							{
								"key" : 34,
								"value" : [ 7, 4, 1, 6, 4 ]
							}
, 							{
								"key" : 35,
								"value" : [ 8, 4, 1, 6, 5 ]
							}
, 							{
								"key" : 36,
								"value" : [ 9, 4, 1, 6, 2 ]
							}
, 							{
								"key" : 37,
								"value" : [ 9, 3, 1, 6, 6 ]
							}
, 							{
								"key" : 38,
								"value" : [ 8, 3, 1, 6, 3 ]
							}
, 							{
								"key" : 39,
								"value" : [ 7, 3, 1, 6, 6 ]
							}
, 							{
								"key" : 40,
								"value" : [ 6, 3, 1, 6, 2 ]
							}
, 							{
								"key" : 41,
								"value" : [ 6, 4, 1, 6, 6 ]
							}
, 							{
								"key" : 42,
								"value" : [ 7, 4, 1, 6, 5 ]
							}
, 							{
								"key" : 43,
								"value" : [ 8, 4, 1, 6, 6 ]
							}
, 							{
								"key" : 44,
								"value" : [ 9, 4, 1, 6, 2 ]
							}
, 							{
								"key" : 45,
								"value" : [ 9, 3, 1, 6, 6 ]
							}
, 							{
								"key" : 46,
								"value" : [ 8, 3, 1, 6, 3 ]
							}
, 							{
								"key" : 47,
								"value" : [ 7, 3, 1, 6, 6 ]
							}
, 							{
								"key" : 48,
								"value" : [ 7, 5, 1, 6, 2 ]
							}
, 							{
								"key" : 49,
								"value" : [ 6, 5, 1, 6, 5 ]
							}
, 							{
								"key" : 50,
								"value" : [ 7, 3, 0, 6, 4 ]
							}
, 							{
								"key" : 51,
								"value" : [ 7, 4, 1, 6, 6 ]
							}
, 							{
								"key" : 52,
								"value" : [ 7, 5, 1, 6, 2 ]
							}
, 							{
								"key" : 53,
								"value" : [ 6, 5, 1, 6, 6 ]
							}
, 							{
								"key" : 54,
								"value" : [ 6, 4, 1, 6, 6 ]
							}
, 							{
								"key" : 55,
								"value" : [ 6, 3, 0, 6, 3 ]
							}
, 							{
								"key" : 56,
								"value" : [ 7, 3, 1, 6, 4 ]
							}
, 							{
								"key" : 57,
								"value" : [ 7, 4, 0, 6, 5 ]
							}
, 							{
								"key" : 58,
								"value" : [ 7, 5, 1, 6, 3 ]
							}
, 							{
								"key" : 59,
								"value" : [ 6, 5, 0, 6, 5 ]
							}
, 							{
								"key" : 60,
								"value" : [ 6, 4, 0, 6, 1 ]
							}
, 							{
								"key" : 61,
								"value" : [ 6, 3, 0, 6, 4 ]
							}
, 							{
								"key" : 62,
								"value" : [ 7, 3, 1, 6, 4 ]
							}
, 							{
								"key" : 63,
								"value" : [ 7, 4, 1, 6, 6 ]
							}
, 							{
								"key" : 64,
								"value" : [ 5, 5, 1, 6, 0 ]
							}
, 							{
								"key" : 65,
								"value" : [ 6, 5, 1, 6, 5 ]
							}
, 							{
								"key" : 66,
								"value" : [ 5, 4, 1, 6, 3 ]
							}
, 							{
								"key" : 67,
								"value" : [ 5, 5, 1, 6, 0 ]
							}
, 							{
								"key" : 68,
								"value" : [ 6, 5, 1, 6, 5 ]
							}
, 							{
								"key" : 69,
								"value" : [ 6, 4, 1, 6, 1 ]
							}
, 							{
								"key" : 70,
								"value" : [ 5, 4, 1, 6, 6 ]
							}
, 							{
								"key" : 71,
								"value" : [ 7, 4, 0, 6, 3 ]
							}
, 							{
								"key" : 72,
								"value" : [ 7, 5, 0, 6, 6 ]
							}
, 							{
								"key" : 73,
								"value" : [ 5, 5, 1, 6, 3 ]
							}
, 							{
								"key" : 74,
								"value" : [ 6, 5, 1, 6, 3 ]
							}
, 							{
								"key" : 75,
								"value" : [ 6, 5, 1, 6, 6 ]
							}
, 							{
								"key" : 76,
								"value" : [ 6, 4, 0, 6, 5 ]
							}
, 							{
								"key" : 77,
								"value" : [ 5, 4, 1, 6, 0 ]
							}
, 							{
								"key" : 78,
								"value" : [ 7, 4, 0, 6, 6 ]
							}
, 							{
								"key" : 79,
								"value" : [ 7, 5, 1, 6, 2 ]
							}
, 							{
								"key" : 80,
								"value" : [ 5, 4, 1, 6, 2 ]
							}
, 							{
								"key" : 81,
								"value" : [ 5, 3, 1, 6, 6 ]
							}
, 							{
								"key" : 82,
								"value" : [ 6, 3, 1, 6, 3 ]
							}
, 							{
								"key" : 83,
								"value" : [ 6, 4, 0, 6, 6 ]
							}
, 							{
								"key" : 84,
								"value" : [ 5, 4, 1, 6, 3 ]
							}
, 							{
								"key" : 85,
								"value" : [ 5, 5, 1, 6, 2 ]
							}
, 							{
								"key" : 86,
								"value" : [ 6, 5, 1, 6, 4 ]
							}
, 							{
								"key" : 87,
								"value" : [ 7, 5, 0, 6, 2 ]
							}
, 							{
								"key" : 88,
								"value" : [ 6, 4, 1, 6, 6 ]
							}
, 							{
								"key" : 89,
								"value" : [ 5, 4, 1, 6, 2 ]
							}
, 							{
								"key" : 90,
								"value" : [ 5, 3, 1, 6, 6 ]
							}
, 							{
								"key" : 91,
								"value" : [ 6, 3, 0, 6, 4 ]
							}
, 							{
								"key" : 92,
								"value" : [ 6, 4, 0, 6, 3 ]
							}
, 							{
								"key" : 93,
								"value" : [ 5, 5, 1, 6, 4 ]
							}
, 							{
								"key" : 94,
								"value" : [ 6, 5, 0, 6, 2 ]
							}
, 							{
								"key" : 95,
								"value" : [ 6, 4, 1, 6, 4 ]
							}
, 							{
								"key" : 96,
								"value" : [ 7, 4, 1, 6, 1 ]
							}
, 							{
								"key" : 97,
								"value" : [ 5, 4, 0, 6, 5 ]
							}
, 							{
								"key" : 98,
								"value" : [ 4, 4, 1, 6, 3 ]
							}
, 							{
								"key" : 99,
								"value" : [ 3, 4, 1, 6, 1 ]
							}
, 							{
								"key" : 100,
								"value" : [ 6, 4, 0, 6, 6 ]
							}
, 							{
								"key" : 101,
								"value" : [ 5, 4, 1, 6, 2 ]
							}
, 							{
								"key" : 102,
								"value" : [ 7, 4, 0, 6, 6 ]
							}
, 							{
								"key" : 103,
								"value" : [ 6, 3, 0, 6, 2 ]
							}
, 							{
								"key" : 104,
								"value" : [ 5, 3, 0, 6, 5 ]
							}
, 							{
								"key" : 105,
								"value" : [ 6, 4, 0, 6, 3 ]
							}
, 							{
								"key" : 106,
								"value" : [ 5, 4, 1, 6, 4 ]
							}
, 							{
								"key" : 107,
								"value" : [ 4, 4, 0, 6, 5 ]
							}
, 							{
								"key" : 108,
								"value" : [ 3, 4, 0, 6, 3 ]
							}
, 							{
								"key" : 109,
								"value" : [ 6, 4, 1, 6, 5 ]
							}
, 							{
								"key" : 110,
								"value" : [ 5, 4, 1, 6, 0 ]
							}
, 							{
								"key" : 111,
								"value" : [ 4, 4, 0, 6, 5 ]
							}
, 							{
								"key" : 112,
								"value" : [ 5, 4, 1, 6, 1 ]
							}
, 							{
								"key" : 113,
								"value" : [ 5, 3, 1, 6, 4 ]
							}
, 							{
								"key" : 114,
								"value" : [ 6, 3, 1, 6, 2 ]
							}
, 							{
								"key" : 115,
								"value" : [ 6, 4, 0, 6, 5 ]
							}
, 							{
								"key" : 116,
								"value" : [ 5, 4, 1, 6, 1 ]
							}
, 							{
								"key" : 117,
								"value" : [ 5, 5, 1, 6, 4 ]
							}
, 							{
								"key" : 118,
								"value" : [ 4, 5, 1, 6, 2 ]
							}
, 							{
								"key" : 119,
								"value" : [ 4, 4, 1, 6, 3 ]
							}
, 							{
								"key" : 120,
								"value" : [ 5, 4, 0, 6, 2 ]
							}
, 							{
								"key" : 121,
								"value" : [ 5, 4, 1, 6, 6 ]
							}
, 							{
								"key" : 122,
								"value" : [ 5, 3, 0, 6, 2 ]
							}
, 							{
								"key" : 123,
								"value" : [ 6, 4, 0, 6, 5 ]
							}
, 							{
								"key" : 124,
								"value" : [ 5, 4, 1, 6, 4 ]
							}
, 							{
								"key" : 125,
								"value" : [ 5, 5, 0, 6, 6 ]
							}
, 							{
								"key" : 126,
								"value" : [ 4, 5, 1, 6, 4 ]
							}
, 							{
								"key" : 127,
								"value" : [ 4, 4, 1, 6, 4 ]
							}
, 							{
								"key" : 128,
								"value" : [ 5, 4, 1, 6, 2 ]
							}
, 							{
								"key" : 129,
								"value" : [ 5, 3, 1, 6, 4 ]
							}
, 							{
								"key" : 130,
								"value" : [ 6, 3, 1, 6, 3 ]
							}
, 							{
								"key" : 131,
								"value" : [ 6, 4, 0, 6, 6 ]
							}
, 							{
								"key" : 132,
								"value" : [ 5, 4, 1, 6, 2 ]
							}
, 							{
								"key" : 133,
								"value" : [ 4, 4, 0, 6, 5 ]
							}
, 							{
								"key" : 134,
								"value" : [ 4, 5, 1, 6, 3 ]
							}
, 							{
								"key" : 135,
								"value" : [ 5, 5, 0, 6, 5 ]
							}
, 							{
								"key" : 136,
								"value" : [ 5, 4, 1, 6, 3 ]
							}
, 							{
								"key" : 137,
								"value" : [ 5, 3, 1, 6, 6 ]
							}
, 							{
								"key" : 138,
								"value" : [ 6, 3, 1, 6, 3 ]
							}
, 							{
								"key" : 139,
								"value" : [ 6, 4, 1, 6, 6 ]
							}
, 							{
								"key" : 140,
								"value" : [ 5, 4, 1, 6, 3 ]
							}
, 							{
								"key" : 141,
								"value" : [ 5, 5, 0, 6, 6 ]
							}
, 							{
								"key" : 142,
								"value" : [ 4, 5, 1, 6, 3 ]
							}
, 							{
								"key" : 143,
								"value" : [ 4, 4, 1, 6, 7 ]
							}
, 							{
								"key" : 144,
								"value" : [ 5, 4, 1, 6, 2 ]
							}
, 							{
								"key" : 145,
								"value" : [ 4, 4, 1, 6, 4 ]
							}
, 							{
								"key" : 146,
								"value" : [ 4, 3, 0, 6, 5 ]
							}
, 							{
								"key" : 147,
								"value" : [ 5, 3, 1, 6, 4 ]
							}
, 							{
								"key" : 148,
								"value" : [ 5, 4, 0, 6, 5 ]
							}
, 							{
								"key" : 149,
								"value" : [ 6, 4, 0, 6, 3 ]
							}
, 							{
								"key" : 150,
								"value" : [ 7, 4, 1, 6, 5 ]
							}
, 							{
								"key" : 151,
								"value" : [ 7, 3, 1, 6, 5 ]
							}
, 							{
								"key" : 152,
								"value" : [ 6, 3, 1, 6, 2 ]
							}
, 							{
								"key" : 153,
								"value" : [ 6, 4, 0, 6, 4 ]
							}
, 							{
								"key" : 154,
								"value" : [ 6, 5, 1, 6, 5 ]
							}
, 							{
								"key" : 155,
								"value" : [ 7, 5, 1, 6, 3 ]
							}
, 							{
								"key" : 156,
								"value" : [ 7, 4, 1, 6, 1 ]
							}
, 							{
								"key" : 157,
								"value" : [ 6, 4, 0, 6, 5 ]
							}
, 							{
								"key" : 158,
								"value" : [ 5, 4, 1, 6, 6 ]
							}
, 							{
								"key" : 159,
								"value" : [ 4, 4, 1, 6, 5 ]
							}
, 							{
								"key" : 160,
								"value" : [ 4, 4, 1, 6, 1 ]
							}
, 							{
								"key" : 161,
								"value" : [ 5, 4, 1, 6, 4 ]
							}
, 							{
								"key" : 162,
								"value" : [ 6, 4, 1, 6, 3 ]
							}
, 							{
								"key" : 163,
								"value" : [ 6, 3, 0, 6, 1 ]
							}
, 							{
								"key" : 164,
								"value" : [ 5, 3, 0, 6, 3 ]
							}
, 							{
								"key" : 165,
								"value" : [ 5, 4, 0, 6, 2 ]
							}
, 							{
								"key" : 166,
								"value" : [ 5, 5, 1, 6, 2 ]
							}
, 							{
								"key" : 167,
								"value" : [ 6, 5, 1, 6, 5 ]
							}
, 							{
								"key" : 168,
								"value" : [ 6, 4, 0, 6, 2 ]
							}
, 							{
								"key" : 169,
								"value" : [ 5, 4, 1, 6, 4 ]
							}
, 							{
								"key" : 170,
								"value" : [ 4, 5, 1, 6, 5 ]
							}
, 							{
								"key" : 171,
								"value" : [ 3, 4, 1, 6, 2 ]
							}
, 							{
								"key" : 172,
								"value" : [ 4, 4, 1, 6, 6 ]
							}
, 							{
								"key" : 173,
								"value" : [ 5, 4, 0, 6, 5 ]
							}
, 							{
								"key" : 174,
								"value" : [ 5, 3, 1, 6, 3 ]
							}
, 							{
								"key" : 175,
								"value" : [ 4, 4, 1, 6, 6 ]
							}
 ]
					}
,
					"color" : [ 1.0, 0.4, 0.4, 1.0 ],
					"fontname" : "Arial",
					"fontsize" : 9.0,
					"id" : "obj-34",
					"maxclass" : "newobj",
					"numinlets" : 1,
					"numoutlets" : 4,
					"outlettype" : [ "", "", "", "" ],
					"patching_rect" : [ 207.0, 385.0, 59.5, 17.0 ],
					"saved_object_attributes" : 					{
						"embed" : 1
					}
,
					"text" : "coll gome 1"
				}

			}
, 			{
				"box" : 				{
					"fontname" : "Arial",
					"fontsize" : 9.0,
					"id" : "obj-35",
					"maxclass" : "newobj",
					"numinlets" : 1,
					"numoutlets" : 4,
					"outlettype" : [ "int", "int", "int", "int" ],
					"patching_rect" : [ 207.0, 408.0, 64.0, 17.0 ],
					"text" : "unpack i i i i"
				}

			}
, 			{
				"box" : 				{
					"fontname" : "Arial",
					"fontsize" : 9.0,
					"id" : "obj-36",
					"maxclass" : "newobj",
					"numinlets" : 1,
					"numoutlets" : 3,
					"outlettype" : [ "int", "int", "int" ],
					"patching_rect" : [ 286.0, 426.0, 58.0, 17.0 ],
					"text" : "unpack i i i"
				}

			}
, 			{
				"box" : 				{
					"color" : [ 0.8, 0.4, 1.0, 1.0 ],
					"fontname" : "Arial",
					"fontsize" : 9.0,
					"id" : "obj-37",
					"maxclass" : "newobj",
					"numinlets" : 1,
					"numoutlets" : 1,
					"outlettype" : [ "" ],
					"patching_rect" : [ 287.0, 401.0, 40.0, 17.0 ],
					"text" : "receive"
				}

			}
, 			{
				"box" : 				{
					"fontname" : "Arial",
					"fontsize" : 9.0,
					"id" : "obj-38",
					"maxclass" : "newobj",
					"numinlets" : 2,
					"numoutlets" : 1,
					"outlettype" : [ "int" ],
					"patching_rect" : [ 292.0, 529.0, 27.0, 17.0 ],
					"text" : "% 7"
				}

			}
, 			{
				"box" : 				{
					"fontname" : "Arial",
					"fontsize" : 9.0,
					"id" : "obj-39",
					"maxclass" : "newobj",
					"numinlets" : 2,
					"numoutlets" : 1,
					"outlettype" : [ "int" ],
					"patching_rect" : [ 243.0, 511.0, 27.0, 17.0 ],
					"text" : "% 8"
				}

			}
, 			{
				"box" : 				{
					"fontname" : "Arial",
					"fontsize" : 9.0,
					"id" : "obj-40",
					"maxclass" : "newobj",
					"numinlets" : 2,
					"numoutlets" : 1,
					"outlettype" : [ "int" ],
					"patching_rect" : [ 292.0, 459.0, 27.0, 17.0 ],
					"text" : "+"
				}

			}
, 			{
				"box" : 				{
					"fontname" : "Arial",
					"fontsize" : 9.0,
					"id" : "obj-41",
					"maxclass" : "newobj",
					"numinlets" : 2,
					"numoutlets" : 1,
					"outlettype" : [ "int" ],
					"patching_rect" : [ 245.0, 459.0, 27.0, 17.0 ],
					"text" : "+"
				}

			}
, 			{
				"box" : 				{
					"fontname" : "Arial",
					"fontsize" : 9.0,
					"id" : "obj-42",
					"maxclass" : "newobj",
					"numinlets" : 2,
					"numoutlets" : 1,
					"outlettype" : [ "int" ],
					"patching_rect" : [ 292.0, 481.0, 27.0, 17.0 ],
					"text" : "- 4"
				}

			}
, 			{
				"box" : 				{
					"fontname" : "Arial",
					"fontsize" : 9.0,
					"id" : "obj-43",
					"maxclass" : "newobj",
					"numinlets" : 2,
					"numoutlets" : 1,
					"outlettype" : [ "int" ],
					"patching_rect" : [ 245.0, 481.0, 27.0, 17.0 ],
					"text" : "- 4"
				}

			}
, 			{
				"box" : 				{
					"fontname" : "Arial",
					"fontsize" : 9.0,
					"id" : "obj-45",
					"maxclass" : "newobj",
					"numinlets" : 1,
					"numoutlets" : 1,
					"outlettype" : [ "int" ],
					"patching_rect" : [ 348.0, 121.0, 21.0, 17.0 ],
					"text" : "t 0"
				}

			}
, 			{
				"box" : 				{
					"fontname" : "Arial",
					"fontsize" : 9.0,
					"id" : "obj-46",
					"maxclass" : "newobj",
					"numinlets" : 2,
					"numoutlets" : 1,
					"outlettype" : [ "" ],
					"patching_rect" : [ 277.0, 102.0, 29.0, 17.0 ],
					"text" : "gate"
				}

			}
, 			{
				"box" : 				{
					"color" : [ 0.8, 0.4, 1.0, 1.0 ],
					"fontname" : "Arial",
					"fontsize" : 9.0,
					"id" : "obj-47",
					"maxclass" : "newobj",
					"numinlets" : 0,
					"numoutlets" : 1,
					"outlettype" : [ "" ],
					"patching_rect" : [ 400.0, 140.0, 91.0, 17.0 ],
					"text" : "r ---[gome]loop_size"
				}

			}
, 			{
				"box" : 				{
					"fontname" : "Arial",
					"fontsize" : 9.0,
					"id" : "obj-56",
					"maxclass" : "newobj",
					"numinlets" : 1,
					"numoutlets" : 4,
					"outlettype" : [ "int", "int", "int", "int" ],
					"patching_rect" : [ 332.0, 355.0, 64.0, 17.0 ],
					"text" : "unpack i i i i"
				}

			}
, 			{
				"box" : 				{
					"color" : [ 1.0, 0.890196, 0.090196, 1.0 ],
					"fontname" : "Arial",
					"fontsize" : 9.0,
					"id" : "obj-57",
					"maxclass" : "newobj",
					"numinlets" : 2,
					"numoutlets" : 2,
					"outlettype" : [ "", "" ],
					"patching_rect" : [ 332.0, 327.0, 44.0, 17.0 ],
					"text" : "zl rot 2"
				}

			}
, 			{
				"box" : 				{
					"fontname" : "Arial",
					"fontsize" : 9.0,
					"id" : "obj-58",
					"maxclass" : "newobj",
					"numinlets" : 2,
					"numoutlets" : 2,
					"outlettype" : [ "", "" ],
					"patching_rect" : [ 332.0, 305.0, 43.0, 17.0 ],
					"text" : "route 1"
				}

			}
, 			{
				"box" : 				{
					"color" : [ 1.0, 0.890196, 0.090196, 1.0 ],
					"fontname" : "Arial",
					"fontsize" : 9.0,
					"id" : "obj-59",
					"maxclass" : "newobj",
					"numinlets" : 2,
					"numoutlets" : 2,
					"outlettype" : [ "", "" ],
					"patching_rect" : [ 332.0, 284.0, 49.0, 17.0 ],
					"text" : "zl rot -2"
				}

			}
, 			{
				"box" : 				{
					"fontname" : "Arial",
					"fontsize" : 9.0,
					"id" : "obj-65",
					"maxclass" : "newobj",
					"numinlets" : 2,
					"numoutlets" : 1,
					"outlettype" : [ "float" ],
					"patching_rect" : [ 558.0, 496.0, 32.5, 17.0 ],
					"text" : "* 0.5"
				}

			}
, 			{
				"box" : 				{
					"fontname" : "Arial",
					"fontsize" : 9.0,
					"id" : "obj-66",
					"maxclass" : "newobj",
					"numinlets" : 1,
					"numoutlets" : 1,
					"outlettype" : [ "" ],
					"patching_rect" : [ 558.0, 436.0, 83.0, 17.0 ],
					"text" : "expr abs($i1-7)"
				}

			}
, 			{
				"box" : 				{
					"color" : [ 0.8, 0.4, 1.0, 1.0 ],
					"fontname" : "Arial",
					"fontsize" : 9.0,
					"id" : "obj-67",
					"maxclass" : "newobj",
					"numinlets" : 0,
					"numoutlets" : 1,
					"outlettype" : [ "" ],
					"patching_rect" : [ 588.0, 466.0, 117.0, 17.0 ],
					"text" : "r ---[gome]_pulse_duration"
				}

			}
, 			{
				"box" : 				{
					"fontname" : "Arial",
					"fontsize" : 9.0,
					"id" : "obj-68",
					"maxclass" : "newobj",
					"numinlets" : 1,
					"numoutlets" : 1,
					"outlettype" : [ "" ],
					"patching_rect" : [ 408.0, 436.0, 102.0, 17.0 ],
					"text" : "expr abs($i1-8)*15"
				}

			}
, 			{
				"box" : 				{
					"fontname" : "Arial",
					"fontsize" : 9.0,
					"id" : "obj-69",
					"maxclass" : "newobj",
					"numinlets" : 2,
					"numoutlets" : 1,
					"outlettype" : [ "int" ],
					"patching_rect" : [ 400.0, 160.0, 27.0, 17.0 ],
					"text" : "- 1"
				}

			}
, 			{
				"box" : 				{
					"fontname" : "Arial",
					"fontsize" : 9.0,
					"id" : "obj-70",
					"maxclass" : "newobj",
					"numinlets" : 5,
					"numoutlets" : 4,
					"outlettype" : [ "int", "", "", "int" ],
					"patching_rect" : [ 332.0, 189.0, 81.0, 17.0 ],
					"text" : "counter 7"
				}

			}
, 			{
				"box" : 				{
					"color" : [ 0.8, 0.4, 1.0, 1.0 ],
					"fontname" : "Arial",
					"fontsize" : 9.0,
					"id" : "obj-71",
					"maxclass" : "newobj",
					"numinlets" : 0,
					"numoutlets" : 1,
					"outlettype" : [ "" ],
					"patching_rect" : [ 296.0, 75.0, 79.0, 17.0 ],
					"text" : "r ---[gome]_pulse"
				}

			}
, 			{
				"box" : 				{
					"coll_data" : 					{
						"count" : 176,
						"data" : [ 							{
								"key" : 0,
								"value" : [ 0, 3, 1, 6, 4 ]
							}
, 							{
								"key" : 1,
								"value" : [ 1, 3, 1, 6, 3 ]
							}
, 							{
								"key" : 2,
								"value" : [ 2, 3, 1, 6, 4 ]
							}
, 							{
								"key" : 3,
								"value" : [ 3, 3, 1, 6, 6 ]
							}
, 							{
								"key" : 4,
								"value" : [ 4, 3, 1, 6, 4 ]
							}
, 							{
								"key" : 5,
								"value" : [ 5, 3, 1, 6, 2 ]
							}
, 							{
								"key" : 6,
								"value" : [ 6, 3, 1, 6, 4 ]
							}
, 							{
								"key" : 7,
								"value" : [ 7, 3, 1, 6, 4 ]
							}
, 							{
								"key" : 8,
								"value" : [ 7, 4, 1, 6, 4 ]
							}
, 							{
								"key" : 9,
								"value" : [ 6, 4, 1, 6, 4 ]
							}
, 							{
								"key" : 10,
								"value" : [ 5, 4, 1, 6, 4 ]
							}
, 							{
								"key" : 11,
								"value" : [ 4, 4, 1, 6, 4 ]
							}
, 							{
								"key" : 12,
								"value" : [ 3, 4, 1, 6, 4 ]
							}
, 							{
								"key" : 13,
								"value" : [ 2, 4, 1, 6, 4 ]
							}
, 							{
								"key" : 14,
								"value" : [ 1, 4, 1, 6, 4 ]
							}
, 							{
								"key" : 15,
								"value" : [ 0, 4, 1, 6, 4 ]
							}
, 							{
								"key" : 16,
								"value" : [ 9, 4, 1, 6, 2 ]
							}
, 							{
								"key" : 17,
								"value" : [ 8, 4, 1, 6, 5 ]
							}
, 							{
								"key" : 18,
								"value" : [ 7, 4, 1, 6, 6 ]
							}
, 							{
								"key" : 19,
								"value" : [ 6, 4, 1, 6, 4 ]
							}
, 							{
								"key" : 20,
								"value" : [ 5, 4, 1, 6, 4 ]
							}
, 							{
								"key" : 21,
								"value" : [ 4, 4, 1, 6, 3 ]
							}
, 							{
								"key" : 22,
								"value" : [ 3, 4, 1, 6, 2 ]
							}
, 							{
								"key" : 23,
								"value" : [ 2, 4, 1, 6, 5 ]
							}
, 							{
								"key" : 24,
								"value" : [ 2, 5, 1, 6, 5 ]
							}
, 							{
								"key" : 25,
								"value" : [ 3, 5, 1, 6, 6 ]
							}
, 							{
								"key" : 26,
								"value" : [ 4, 5, 1, 6, 1 ]
							}
, 							{
								"key" : 27,
								"value" : [ 5, 5, 1, 6, 5 ]
							}
, 							{
								"key" : 28,
								"value" : [ 6, 5, 1, 6, 5 ]
							}
, 							{
								"key" : 29,
								"value" : [ 7, 5, 1, 6, 4 ]
							}
, 							{
								"key" : 30,
								"value" : [ 8, 5, 1, 6, 7 ]
							}
, 							{
								"key" : 31,
								"value" : [ 9, 5, 1, 6, 6 ]
							}
, 							{
								"key" : 32,
								"value" : [ 6, 4, 1, 6, 1 ]
							}
, 							{
								"key" : 33,
								"value" : [ 7, 4, 1, 6, 6 ]
							}
, 							{
								"key" : 34,
								"value" : [ 7, 4, 1, 6, 4 ]
							}
, 							{
								"key" : 35,
								"value" : [ 8, 4, 1, 6, 5 ]
							}
, 							{
								"key" : 36,
								"value" : [ 9, 4, 1, 6, 2 ]
							}
, 							{
								"key" : 37,
								"value" : [ 9, 3, 1, 6, 6 ]
							}
, 							{
								"key" : 38,
								"value" : [ 8, 3, 1, 6, 3 ]
							}
, 							{
								"key" : 39,
								"value" : [ 7, 3, 1, 6, 6 ]
							}
, 							{
								"key" : 40,
								"value" : [ 6, 3, 1, 6, 2 ]
							}
, 							{
								"key" : 41,
								"value" : [ 6, 4, 1, 6, 6 ]
							}
, 							{
								"key" : 42,
								"value" : [ 7, 4, 1, 6, 5 ]
							}
, 							{
								"key" : 43,
								"value" : [ 8, 4, 1, 6, 6 ]
							}
, 							{
								"key" : 44,
								"value" : [ 9, 4, 1, 6, 2 ]
							}
, 							{
								"key" : 45,
								"value" : [ 9, 3, 1, 6, 6 ]
							}
, 							{
								"key" : 46,
								"value" : [ 8, 3, 1, 6, 3 ]
							}
, 							{
								"key" : 47,
								"value" : [ 7, 3, 1, 6, 6 ]
							}
, 							{
								"key" : 48,
								"value" : [ 7, 5, 1, 6, 2 ]
							}
, 							{
								"key" : 49,
								"value" : [ 6, 5, 1, 6, 5 ]
							}
, 							{
								"key" : 50,
								"value" : [ 7, 3, 0, 6, 4 ]
							}
, 							{
								"key" : 51,
								"value" : [ 7, 4, 1, 6, 6 ]
							}
, 							{
								"key" : 52,
								"value" : [ 7, 5, 1, 6, 2 ]
							}
, 							{
								"key" : 53,
								"value" : [ 6, 5, 1, 6, 6 ]
							}
, 							{
								"key" : 54,
								"value" : [ 6, 4, 1, 6, 6 ]
							}
, 							{
								"key" : 55,
								"value" : [ 6, 3, 0, 6, 3 ]
							}
, 							{
								"key" : 56,
								"value" : [ 7, 3, 1, 6, 4 ]
							}
, 							{
								"key" : 57,
								"value" : [ 7, 4, 0, 6, 5 ]
							}
, 							{
								"key" : 58,
								"value" : [ 7, 5, 1, 6, 3 ]
							}
, 							{
								"key" : 59,
								"value" : [ 6, 5, 0, 6, 5 ]
							}
, 							{
								"key" : 60,
								"value" : [ 6, 4, 0, 6, 1 ]
							}
, 							{
								"key" : 61,
								"value" : [ 6, 3, 0, 6, 4 ]
							}
, 							{
								"key" : 62,
								"value" : [ 7, 3, 1, 6, 4 ]
							}
, 							{
								"key" : 63,
								"value" : [ 7, 4, 1, 6, 6 ]
							}
, 							{
								"key" : 64,
								"value" : [ 5, 5, 1, 6, 0 ]
							}
, 							{
								"key" : 65,
								"value" : [ 6, 5, 1, 6, 5 ]
							}
, 							{
								"key" : 66,
								"value" : [ 5, 4, 1, 6, 3 ]
							}
, 							{
								"key" : 67,
								"value" : [ 5, 5, 1, 6, 0 ]
							}
, 							{
								"key" : 68,
								"value" : [ 6, 5, 1, 6, 5 ]
							}
, 							{
								"key" : 69,
								"value" : [ 6, 4, 1, 6, 1 ]
							}
, 							{
								"key" : 70,
								"value" : [ 5, 4, 1, 6, 6 ]
							}
, 							{
								"key" : 71,
								"value" : [ 7, 4, 0, 6, 3 ]
							}
, 							{
								"key" : 72,
								"value" : [ 7, 5, 0, 6, 6 ]
							}
, 							{
								"key" : 73,
								"value" : [ 5, 5, 1, 6, 3 ]
							}
, 							{
								"key" : 74,
								"value" : [ 6, 5, 1, 6, 3 ]
							}
, 							{
								"key" : 75,
								"value" : [ 6, 5, 1, 6, 6 ]
							}
, 							{
								"key" : 76,
								"value" : [ 6, 4, 0, 6, 5 ]
							}
, 							{
								"key" : 77,
								"value" : [ 5, 4, 1, 6, 0 ]
							}
, 							{
								"key" : 78,
								"value" : [ 7, 4, 0, 6, 6 ]
							}
, 							{
								"key" : 79,
								"value" : [ 7, 5, 1, 6, 2 ]
							}
, 							{
								"key" : 80,
								"value" : [ 5, 4, 1, 6, 2 ]
							}
, 							{
								"key" : 81,
								"value" : [ 5, 3, 1, 6, 6 ]
							}
, 							{
								"key" : 82,
								"value" : [ 6, 3, 1, 6, 3 ]
							}
, 							{
								"key" : 83,
								"value" : [ 6, 4, 0, 6, 6 ]
							}
, 							{
								"key" : 84,
								"value" : [ 5, 4, 1, 6, 3 ]
							}
, 							{
								"key" : 85,
								"value" : [ 5, 5, 1, 6, 2 ]
							}
, 							{
								"key" : 86,
								"value" : [ 6, 5, 1, 6, 4 ]
							}
, 							{
								"key" : 87,
								"value" : [ 7, 5, 0, 6, 2 ]
							}
, 							{
								"key" : 88,
								"value" : [ 6, 4, 1, 6, 6 ]
							}
, 							{
								"key" : 89,
								"value" : [ 5, 4, 1, 6, 2 ]
							}
, 							{
								"key" : 90,
								"value" : [ 5, 3, 1, 6, 6 ]
							}
, 							{
								"key" : 91,
								"value" : [ 6, 3, 0, 6, 4 ]
							}
, 							{
								"key" : 92,
								"value" : [ 6, 4, 0, 6, 3 ]
							}
, 							{
								"key" : 93,
								"value" : [ 5, 5, 1, 6, 4 ]
							}
, 							{
								"key" : 94,
								"value" : [ 6, 5, 0, 6, 2 ]
							}
, 							{
								"key" : 95,
								"value" : [ 6, 4, 1, 6, 4 ]
							}
, 							{
								"key" : 96,
								"value" : [ 7, 4, 1, 6, 1 ]
							}
, 							{
								"key" : 97,
								"value" : [ 5, 4, 0, 6, 5 ]
							}
, 							{
								"key" : 98,
								"value" : [ 4, 4, 1, 6, 3 ]
							}
, 							{
								"key" : 99,
								"value" : [ 3, 4, 1, 6, 1 ]
							}
, 							{
								"key" : 100,
								"value" : [ 6, 4, 0, 6, 6 ]
							}
, 							{
								"key" : 101,
								"value" : [ 5, 4, 1, 6, 2 ]
							}
, 							{
								"key" : 102,
								"value" : [ 7, 4, 0, 6, 6 ]
							}
, 							{
								"key" : 103,
								"value" : [ 6, 3, 0, 6, 2 ]
							}
, 							{
								"key" : 104,
								"value" : [ 5, 3, 0, 6, 5 ]
							}
, 							{
								"key" : 105,
								"value" : [ 6, 4, 0, 6, 3 ]
							}
, 							{
								"key" : 106,
								"value" : [ 5, 4, 1, 6, 4 ]
							}
, 							{
								"key" : 107,
								"value" : [ 4, 4, 0, 6, 5 ]
							}
, 							{
								"key" : 108,
								"value" : [ 3, 4, 0, 6, 3 ]
							}
, 							{
								"key" : 109,
								"value" : [ 6, 4, 1, 6, 5 ]
							}
, 							{
								"key" : 110,
								"value" : [ 5, 4, 1, 6, 0 ]
							}
, 							{
								"key" : 111,
								"value" : [ 4, 4, 0, 6, 5 ]
							}
, 							{
								"key" : 112,
								"value" : [ 5, 4, 1, 6, 1 ]
							}
, 							{
								"key" : 113,
								"value" : [ 5, 3, 1, 6, 4 ]
							}
, 							{
								"key" : 114,
								"value" : [ 6, 3, 1, 6, 2 ]
							}
, 							{
								"key" : 115,
								"value" : [ 6, 4, 0, 6, 5 ]
							}
, 							{
								"key" : 116,
								"value" : [ 5, 4, 1, 6, 1 ]
							}
, 							{
								"key" : 117,
								"value" : [ 5, 5, 1, 6, 4 ]
							}
, 							{
								"key" : 118,
								"value" : [ 4, 5, 1, 6, 2 ]
							}
, 							{
								"key" : 119,
								"value" : [ 4, 4, 1, 6, 3 ]
							}
, 							{
								"key" : 120,
								"value" : [ 5, 4, 0, 6, 2 ]
							}
, 							{
								"key" : 121,
								"value" : [ 5, 4, 1, 6, 6 ]
							}
, 							{
								"key" : 122,
								"value" : [ 5, 3, 0, 6, 2 ]
							}
, 							{
								"key" : 123,
								"value" : [ 6, 4, 0, 6, 5 ]
							}
, 							{
								"key" : 124,
								"value" : [ 5, 4, 1, 6, 4 ]
							}
, 							{
								"key" : 125,
								"value" : [ 5, 5, 0, 6, 6 ]
							}
, 							{
								"key" : 126,
								"value" : [ 4, 5, 1, 6, 4 ]
							}
, 							{
								"key" : 127,
								"value" : [ 4, 4, 1, 6, 4 ]
							}
, 							{
								"key" : 128,
								"value" : [ 5, 4, 1, 6, 2 ]
							}
, 							{
								"key" : 129,
								"value" : [ 5, 3, 1, 6, 4 ]
							}
, 							{
								"key" : 130,
								"value" : [ 6, 3, 1, 6, 3 ]
							}
, 							{
								"key" : 131,
								"value" : [ 6, 4, 0, 6, 6 ]
							}
, 							{
								"key" : 132,
								"value" : [ 5, 4, 1, 6, 2 ]
							}
, 							{
								"key" : 133,
								"value" : [ 4, 4, 0, 6, 5 ]
							}
, 							{
								"key" : 134,
								"value" : [ 4, 5, 1, 6, 3 ]
							}
, 							{
								"key" : 135,
								"value" : [ 5, 5, 0, 6, 5 ]
							}
, 							{
								"key" : 136,
								"value" : [ 5, 4, 1, 6, 3 ]
							}
, 							{
								"key" : 137,
								"value" : [ 5, 3, 1, 6, 6 ]
							}
, 							{
								"key" : 138,
								"value" : [ 6, 3, 1, 6, 3 ]
							}
, 							{
								"key" : 139,
								"value" : [ 6, 4, 1, 6, 6 ]
							}
, 							{
								"key" : 140,
								"value" : [ 5, 4, 1, 6, 3 ]
							}
, 							{
								"key" : 141,
								"value" : [ 5, 5, 0, 6, 6 ]
							}
, 							{
								"key" : 142,
								"value" : [ 4, 5, 1, 6, 3 ]
							}
, 							{
								"key" : 143,
								"value" : [ 4, 4, 1, 6, 7 ]
							}
, 							{
								"key" : 144,
								"value" : [ 5, 4, 1, 6, 2 ]
							}
, 							{
								"key" : 145,
								"value" : [ 4, 4, 1, 6, 4 ]
							}
, 							{
								"key" : 146,
								"value" : [ 4, 3, 0, 6, 5 ]
							}
, 							{
								"key" : 147,
								"value" : [ 5, 3, 1, 6, 4 ]
							}
, 							{
								"key" : 148,
								"value" : [ 5, 4, 0, 6, 5 ]
							}
, 							{
								"key" : 149,
								"value" : [ 6, 4, 0, 6, 3 ]
							}
, 							{
								"key" : 150,
								"value" : [ 7, 4, 1, 6, 5 ]
							}
, 							{
								"key" : 151,
								"value" : [ 7, 3, 1, 6, 5 ]
							}
, 							{
								"key" : 152,
								"value" : [ 6, 3, 1, 6, 2 ]
							}
, 							{
								"key" : 153,
								"value" : [ 6, 4, 0, 6, 4 ]
							}
, 							{
								"key" : 154,
								"value" : [ 6, 5, 1, 6, 5 ]
							}
, 							{
								"key" : 155,
								"value" : [ 7, 5, 1, 6, 3 ]
							}
, 							{
								"key" : 156,
								"value" : [ 7, 4, 1, 6, 1 ]
							}
, 							{
								"key" : 157,
								"value" : [ 6, 4, 0, 6, 5 ]
							}
, 							{
								"key" : 158,
								"value" : [ 5, 4, 1, 6, 6 ]
							}
, 							{
								"key" : 159,
								"value" : [ 4, 4, 1, 6, 5 ]
							}
, 							{
								"key" : 160,
								"value" : [ 4, 4, 1, 6, 1 ]
							}
, 							{
								"key" : 161,
								"value" : [ 5, 4, 1, 6, 4 ]
							}
, 							{
								"key" : 162,
								"value" : [ 6, 4, 1, 6, 3 ]
							}
, 							{
								"key" : 163,
								"value" : [ 6, 3, 0, 6, 1 ]
							}
, 							{
								"key" : 164,
								"value" : [ 5, 3, 0, 6, 3 ]
							}
, 							{
								"key" : 165,
								"value" : [ 5, 4, 0, 6, 2 ]
							}
, 							{
								"key" : 166,
								"value" : [ 5, 5, 1, 6, 2 ]
							}
, 							{
								"key" : 167,
								"value" : [ 6, 5, 1, 6, 5 ]
							}
, 							{
								"key" : 168,
								"value" : [ 6, 4, 0, 6, 2 ]
							}
, 							{
								"key" : 169,
								"value" : [ 5, 4, 1, 6, 4 ]
							}
, 							{
								"key" : 170,
								"value" : [ 4, 5, 1, 6, 5 ]
							}
, 							{
								"key" : 171,
								"value" : [ 3, 4, 1, 6, 2 ]
							}
, 							{
								"key" : 172,
								"value" : [ 4, 4, 1, 6, 6 ]
							}
, 							{
								"key" : 173,
								"value" : [ 5, 4, 0, 6, 5 ]
							}
, 							{
								"key" : 174,
								"value" : [ 5, 3, 1, 6, 3 ]
							}
, 							{
								"key" : 175,
								"value" : [ 4, 4, 1, 6, 6 ]
							}
 ]
					}
,
					"color" : [ 1.0, 0.4, 0.4, 1.0 ],
					"fontname" : "Arial",
					"fontsize" : 9.0,
					"id" : "obj-72",
					"maxclass" : "newobj",
					"numinlets" : 1,
					"numoutlets" : 4,
					"outlettype" : [ "", "", "", "" ],
					"patching_rect" : [ 332.0, 262.0, 59.5, 17.0 ],
					"saved_object_attributes" : 					{
						"embed" : 1
					}
,
					"text" : "coll gome 1"
				}

			}
, 			{
				"box" : 				{
					"fontname" : "Arial",
					"fontsize" : 9.0,
					"id" : "obj-82",
					"maxclass" : "newobj",
					"numinlets" : 3,
					"numoutlets" : 1,
					"outlettype" : [ "" ],
					"patching_rect" : [ 258.0, 751.0, 315.0, 17.0 ],
					"text" : "pack i 64 1."
				}

			}
, 			{
				"box" : 				{
					"color" : [ 0.8, 0.4, 1.0, 1.0 ],
					"fontname" : "Arial",
					"fontsize" : 9.0,
					"id" : "obj-83",
					"maxclass" : "newobj",
					"numinlets" : 0,
					"numoutlets" : 1,
					"outlettype" : [ "" ],
					"patching_rect" : [ 168.0, 616.0, 79.0, 17.0 ],
					"text" : "r ---[gome]_col_p"
				}

			}
, 			{
				"box" : 				{
					"color" : [ 0.8, 0.4, 1.0, 1.0 ],
					"fontname" : "Arial",
					"fontsize" : 9.0,
					"id" : "obj-84",
					"maxclass" : "newobj",
					"numinlets" : 0,
					"numoutlets" : 1,
					"outlettype" : [ "" ],
					"patching_rect" : [ 270.0, 645.0, 82.0, 17.0 ],
					"text" : "r ---[gome]_row_p"
				}

			}
, 			{
				"box" : 				{
					"color" : [ 1.0, 0.8, 0.4, 1.0 ],
					"fontname" : "Arial",
					"fontsize" : 9.0,
					"id" : "obj-85",
					"maxclass" : "newobj",
					"numinlets" : 2,
					"numoutlets" : 1,
					"outlettype" : [ "" ],
					"patcher" : 					{
						"fileversion" : 1,
						"appversion" : 						{
							"major" : 6,
							"minor" : 1,
							"revision" : 9,
							"architecture" : "x86"
						}
,
						"rect" : [ 10.0, 59.0, 600.0, 426.0 ],
						"bglocked" : 0,
						"openinpresentation" : 0,
						"default_fontsize" : 12.0,
						"default_fontface" : 0,
						"default_fontname" : "Arial",
						"gridonopen" : 0,
						"gridsize" : [ 15.0, 15.0 ],
						"gridsnaponopen" : 0,
						"statusbarvisible" : 2,
						"toolbarvisible" : 1,
						"boxanimatetime" : 200,
						"imprint" : 0,
						"enablehscroll" : 1,
						"enablevscroll" : 1,
						"devicewidth" : 0.0,
						"description" : "",
						"digest" : "",
						"tags" : "",
						"boxes" : [ 							{
								"box" : 								{
									"comment" : "",
									"id" : "obj-1",
									"maxclass" : "outlet",
									"numinlets" : 1,
									"numoutlets" : 0,
									"patching_rect" : [ 165.0, 240.0, 15.0, 15.0 ]
								}

							}
, 							{
								"box" : 								{
									"comment" : "",
									"id" : "obj-2",
									"maxclass" : "inlet",
									"numinlets" : 0,
									"numoutlets" : 1,
									"outlettype" : [ "" ],
									"patching_rect" : [ 177.0, 135.0, 15.0, 15.0 ]
								}

							}
, 							{
								"box" : 								{
									"comment" : "switch in",
									"id" : "obj-3",
									"maxclass" : "inlet",
									"numinlets" : 0,
									"numoutlets" : 1,
									"outlettype" : [ "" ],
									"patching_rect" : [ 121.0, 58.0, 15.0, 15.0 ]
								}

							}
, 							{
								"box" : 								{
									"fontname" : "Arial",
									"fontsize" : 9.0,
									"id" : "obj-4",
									"maxclass" : "newobj",
									"numinlets" : 17,
									"numoutlets" : 1,
									"outlettype" : [ "" ],
									"patching_rect" : [ 150.0, 210.0, 235.0, 17.0 ],
									"text" : "switch 16 4"
								}

							}
, 							{
								"box" : 								{
									"fontname" : "Arial",
									"fontsize" : 9.0,
									"id" : "obj-5",
									"maxclass" : "newobj",
									"numinlets" : 1,
									"numoutlets" : 16,
									"outlettype" : [ "int", "int", "int", "int", "int", "int", "int", "int", "int", "int", "int", "int", "int", "int", "int", "int" ],
									"patching_rect" : [ 166.0, 174.0, 209.0, 17.0 ],
									"text" : "unpack i i i i i i i i i i i i i i i i"
								}

							}
 ],
						"lines" : [ 							{
								"patchline" : 								{
									"destination" : [ "obj-5", 0 ],
									"disabled" : 0,
									"hidden" : 0,
									"source" : [ "obj-2", 0 ]
								}

							}
, 							{
								"patchline" : 								{
									"destination" : [ "obj-4", 0 ],
									"disabled" : 0,
									"hidden" : 0,
									"source" : [ "obj-3", 0 ]
								}

							}
, 							{
								"patchline" : 								{
									"destination" : [ "obj-1", 0 ],
									"disabled" : 0,
									"hidden" : 0,
									"source" : [ "obj-4", 0 ]
								}

							}
, 							{
								"patchline" : 								{
									"destination" : [ "obj-4", 16 ],
									"disabled" : 0,
									"hidden" : 0,
									"source" : [ "obj-5", 15 ]
								}

							}
, 							{
								"patchline" : 								{
									"destination" : [ "obj-4", 15 ],
									"disabled" : 0,
									"hidden" : 0,
									"source" : [ "obj-5", 14 ]
								}

							}
, 							{
								"patchline" : 								{
									"destination" : [ "obj-4", 14 ],
									"disabled" : 0,
									"hidden" : 0,
									"source" : [ "obj-5", 13 ]
								}

							}
, 							{
								"patchline" : 								{
									"destination" : [ "obj-4", 13 ],
									"disabled" : 0,
									"hidden" : 0,
									"source" : [ "obj-5", 12 ]
								}

							}
, 							{
								"patchline" : 								{
									"destination" : [ "obj-4", 12 ],
									"disabled" : 0,
									"hidden" : 0,
									"source" : [ "obj-5", 11 ]
								}

							}
, 							{
								"patchline" : 								{
									"destination" : [ "obj-4", 11 ],
									"disabled" : 0,
									"hidden" : 0,
									"source" : [ "obj-5", 10 ]
								}

							}
, 							{
								"patchline" : 								{
									"destination" : [ "obj-4", 10 ],
									"disabled" : 0,
									"hidden" : 0,
									"source" : [ "obj-5", 9 ]
								}

							}
, 							{
								"patchline" : 								{
									"destination" : [ "obj-4", 9 ],
									"disabled" : 0,
									"hidden" : 0,
									"source" : [ "obj-5", 8 ]
								}

							}
, 							{
								"patchline" : 								{
									"destination" : [ "obj-4", 8 ],
									"disabled" : 0,
									"hidden" : 0,
									"source" : [ "obj-5", 7 ]
								}

							}
, 							{
								"patchline" : 								{
									"destination" : [ "obj-4", 7 ],
									"disabled" : 0,
									"hidden" : 0,
									"source" : [ "obj-5", 6 ]
								}

							}
, 							{
								"patchline" : 								{
									"destination" : [ "obj-4", 6 ],
									"disabled" : 0,
									"hidden" : 0,
									"source" : [ "obj-5", 5 ]
								}

							}
, 							{
								"patchline" : 								{
									"destination" : [ "obj-4", 5 ],
									"disabled" : 0,
									"hidden" : 0,
									"source" : [ "obj-5", 4 ]
								}

							}
, 							{
								"patchline" : 								{
									"destination" : [ "obj-4", 4 ],
									"disabled" : 0,
									"hidden" : 0,
									"source" : [ "obj-5", 3 ]
								}

							}
, 							{
								"patchline" : 								{
									"destination" : [ "obj-4", 3 ],
									"disabled" : 0,
									"hidden" : 0,
									"source" : [ "obj-5", 2 ]
								}

							}
, 							{
								"patchline" : 								{
									"destination" : [ "obj-4", 2 ],
									"disabled" : 0,
									"hidden" : 0,
									"source" : [ "obj-5", 1 ]
								}

							}
, 							{
								"patchline" : 								{
									"destination" : [ "obj-4", 1 ],
									"disabled" : 0,
									"hidden" : 0,
									"source" : [ "obj-5", 0 ]
								}

							}
 ]
					}
,
					"patching_rect" : [ 288.0, 676.0, 67.0, 17.0 ],
					"saved_object_attributes" : 					{
						"default_fontface" : 0,
						"default_fontname" : "Arial",
						"default_fontsize" : 12.0,
						"description" : "",
						"digest" : "",
						"fontface" : 0,
						"fontname" : "Arial",
						"fontsize" : 12.0,
						"globalpatchername" : "",
						"tags" : ""
					}
,
					"text" : "p swtsxtn"
				}

			}
, 			{
				"box" : 				{
					"color" : [ 1.0, 0.8, 0.4, 1.0 ],
					"fontname" : "Arial",
					"fontsize" : 9.0,
					"id" : "obj-86",
					"maxclass" : "newobj",
					"numinlets" : 2,
					"numoutlets" : 1,
					"outlettype" : [ "" ],
					"patcher" : 					{
						"fileversion" : 1,
						"appversion" : 						{
							"major" : 6,
							"minor" : 1,
							"revision" : 9,
							"architecture" : "x86"
						}
,
						"rect" : [ 113.0, 57.0, 560.0, 373.0 ],
						"bglocked" : 0,
						"openinpresentation" : 0,
						"default_fontsize" : 12.0,
						"default_fontface" : 0,
						"default_fontname" : "Arial",
						"gridonopen" : 0,
						"gridsize" : [ 15.0, 15.0 ],
						"gridsnaponopen" : 0,
						"statusbarvisible" : 2,
						"toolbarvisible" : 1,
						"boxanimatetime" : 200,
						"imprint" : 0,
						"enablehscroll" : 1,
						"enablevscroll" : 1,
						"devicewidth" : 0.0,
						"description" : "",
						"digest" : "",
						"tags" : "",
						"boxes" : [ 							{
								"box" : 								{
									"comment" : "",
									"id" : "obj-1",
									"maxclass" : "outlet",
									"numinlets" : 1,
									"numoutlets" : 0,
									"patching_rect" : [ 41.0, 234.0, 15.0, 15.0 ]
								}

							}
, 							{
								"box" : 								{
									"comment" : "",
									"id" : "obj-2",
									"maxclass" : "inlet",
									"numinlets" : 0,
									"numoutlets" : 1,
									"outlettype" : [ "" ],
									"patching_rect" : [ 60.0, 135.0, 15.0, 15.0 ]
								}

							}
, 							{
								"box" : 								{
									"comment" : "switch in",
									"id" : "obj-3",
									"maxclass" : "inlet",
									"numinlets" : 0,
									"numoutlets" : 1,
									"outlettype" : [ "" ],
									"patching_rect" : [ 4.0, 58.0, 15.0, 15.0 ]
								}

							}
, 							{
								"box" : 								{
									"fontname" : "Arial",
									"fontsize" : 9.0,
									"id" : "obj-4",
									"maxclass" : "newobj",
									"numinlets" : 17,
									"numoutlets" : 1,
									"outlettype" : [ "" ],
									"patching_rect" : [ 30.0, 210.0, 235.0, 17.0 ],
									"text" : "switch 16 1"
								}

							}
, 							{
								"box" : 								{
									"fontname" : "Arial",
									"fontsize" : 9.0,
									"id" : "obj-5",
									"maxclass" : "newobj",
									"numinlets" : 1,
									"numoutlets" : 16,
									"outlettype" : [ "int", "int", "int", "int", "int", "int", "int", "int", "int", "int", "int", "int", "int", "int", "int", "int" ],
									"patching_rect" : [ 49.0, 174.0, 209.0, 17.0 ],
									"text" : "unpack i i i i i i i i i i i i i i i i"
								}

							}
 ],
						"lines" : [ 							{
								"patchline" : 								{
									"destination" : [ "obj-5", 0 ],
									"disabled" : 0,
									"hidden" : 0,
									"source" : [ "obj-2", 0 ]
								}

							}
, 							{
								"patchline" : 								{
									"destination" : [ "obj-4", 0 ],
									"disabled" : 0,
									"hidden" : 0,
									"source" : [ "obj-3", 0 ]
								}

							}
, 							{
								"patchline" : 								{
									"destination" : [ "obj-1", 0 ],
									"disabled" : 0,
									"hidden" : 0,
									"source" : [ "obj-4", 0 ]
								}

							}
, 							{
								"patchline" : 								{
									"destination" : [ "obj-4", 16 ],
									"disabled" : 0,
									"hidden" : 0,
									"source" : [ "obj-5", 15 ]
								}

							}
, 							{
								"patchline" : 								{
									"destination" : [ "obj-4", 15 ],
									"disabled" : 0,
									"hidden" : 0,
									"source" : [ "obj-5", 14 ]
								}

							}
, 							{
								"patchline" : 								{
									"destination" : [ "obj-4", 14 ],
									"disabled" : 0,
									"hidden" : 0,
									"source" : [ "obj-5", 13 ]
								}

							}
, 							{
								"patchline" : 								{
									"destination" : [ "obj-4", 13 ],
									"disabled" : 0,
									"hidden" : 0,
									"source" : [ "obj-5", 12 ]
								}

							}
, 							{
								"patchline" : 								{
									"destination" : [ "obj-4", 12 ],
									"disabled" : 0,
									"hidden" : 0,
									"source" : [ "obj-5", 11 ]
								}

							}
, 							{
								"patchline" : 								{
									"destination" : [ "obj-4", 11 ],
									"disabled" : 0,
									"hidden" : 0,
									"source" : [ "obj-5", 10 ]
								}

							}
, 							{
								"patchline" : 								{
									"destination" : [ "obj-4", 10 ],
									"disabled" : 0,
									"hidden" : 0,
									"source" : [ "obj-5", 9 ]
								}

							}
, 							{
								"patchline" : 								{
									"destination" : [ "obj-4", 9 ],
									"disabled" : 0,
									"hidden" : 0,
									"source" : [ "obj-5", 8 ]
								}

							}
, 							{
								"patchline" : 								{
									"destination" : [ "obj-4", 8 ],
									"disabled" : 0,
									"hidden" : 0,
									"source" : [ "obj-5", 7 ]
								}

							}
, 							{
								"patchline" : 								{
									"destination" : [ "obj-4", 7 ],
									"disabled" : 0,
									"hidden" : 0,
									"source" : [ "obj-5", 6 ]
								}

							}
, 							{
								"patchline" : 								{
									"destination" : [ "obj-4", 6 ],
									"disabled" : 0,
									"hidden" : 0,
									"source" : [ "obj-5", 5 ]
								}

							}
, 							{
								"patchline" : 								{
									"destination" : [ "obj-4", 5 ],
									"disabled" : 0,
									"hidden" : 0,
									"source" : [ "obj-5", 4 ]
								}

							}
, 							{
								"patchline" : 								{
									"destination" : [ "obj-4", 4 ],
									"disabled" : 0,
									"hidden" : 0,
									"source" : [ "obj-5", 3 ]
								}

							}
, 							{
								"patchline" : 								{
									"destination" : [ "obj-4", 3 ],
									"disabled" : 0,
									"hidden" : 0,
									"source" : [ "obj-5", 2 ]
								}

							}
, 							{
								"patchline" : 								{
									"destination" : [ "obj-4", 2 ],
									"disabled" : 0,
									"hidden" : 0,
									"source" : [ "obj-5", 1 ]
								}

							}
, 							{
								"patchline" : 								{
									"destination" : [ "obj-4", 1 ],
									"disabled" : 0,
									"hidden" : 0,
									"source" : [ "obj-5", 0 ]
								}

							}
 ]
					}
,
					"patching_rect" : [ 183.0, 646.0, 68.0, 17.0 ],
					"saved_object_attributes" : 					{
						"default_fontface" : 0,
						"default_fontname" : "Arial",
						"default_fontsize" : 12.0,
						"description" : "",
						"digest" : "",
						"fontface" : 0,
						"fontname" : "Arial",
						"fontsize" : 12.0,
						"globalpatchername" : "",
						"tags" : ""
					}
,
					"text" : "p swtsxtn"
				}

			}
, 			{
				"box" : 				{
					"coll_data" : 					{
						"count" : 16,
						"data" : [ 							{
								"key" : 0,
								"value" : [ 0, 0, 0, 0, 0, 0, 0, 0, 0, 0, 0, 0, 0 ]
							}
, 							{
								"key" : 1,
								"value" : [ 1, 2, 3, 4, 5, 6, 7, 8, 9, 10, 11, 7, 2 ]
							}
, 							{
								"key" : 2,
								"value" : [ 2, 4, 6, 8, 10, 12, 14, 16, 18, 20, 22, 2, 4 ]
							}
, 							{
								"key" : 3,
								"value" : [ 3, 6, 9, 12, 15, 18, 21, 24, 27, 30, 33, 9, 5 ]
							}
, 							{
								"key" : 4,
								"value" : [ 4, 8, 12, 16, 20, 24, 28, 32, 36, 40, 44, 4, 7 ]
							}
, 							{
								"key" : 5,
								"value" : [ 5, 10, 15, 20, 25, 30, 35, 40, 45, 50, 55, 11, 9 ]
							}
, 							{
								"key" : 6,
								"value" : [ 6, 12, 18, 24, 30, 36, 42, 48, 54, 60, 66, 6, 11 ]
							}
, 							{
								"key" : 7,
								"value" : [ 7, 14, 21, 28, 35, 42, 49, 56, 63, 70, 77, 13, 12 ]
							}
, 							{
								"key" : 8,
								"value" : [ 8, 16, 24, 32, 40, 48, 56, 64, 72, 80, 88, 8, 14 ]
							}
, 							{
								"key" : 9,
								"value" : [ 9, 18, 27, 36, 45, 54, 63, 72, 81, 90, 99, 15, 16 ]
							}
, 							{
								"key" : 10,
								"value" : [ 10, 20, 30, 40, 50, 60, 70, 80, 90, 100, 110, 10, 17 ]
							}
, 							{
								"key" : 11,
								"value" : [ 11, 22, 33, 44, 55, 66, 77, 88, 99, 110, 121, 17, 19 ]
							}
, 							{
								"key" : 12,
								"value" : [ 12, 24, 36, 48, 60, 72, 84, 96, 108, 120, 132, 12, 21 ]
							}
, 							{
								"key" : 13,
								"value" : [ 13, 26, 39, 52, 65, 78, 91, 104, 117, 130, 143, 19, 23 ]
							}
, 							{
								"key" : 14,
								"value" : [ 14, 28, 42, 56, 70, 84, 98, 112, 126, 140, 154, 14, 24 ]
							}
, 							{
								"key" : 15,
								"value" : [ 15, 30, 45, 60, 75, 90, 105, 120, 135, 150, 165, 21, 26 ]
							}
 ]
					}
,
					"color" : [ 1.0, 0.4, 0.4, 1.0 ],
					"fontname" : "Arial",
					"fontsize" : 9.0,
					"id" : "obj-87",
					"maxclass" : "newobj",
					"numinlets" : 1,
					"numoutlets" : 4,
					"outlettype" : [ "", "", "", "" ],
					"patching_rect" : [ 348.0, 646.0, 59.5, 17.0 ],
					"saved_object_attributes" : 					{
						"embed" : 1
					}
,
					"text" : "coll 16grid 1"
				}

			}
, 			{
				"box" : 				{
					"fontname" : "Arial",
					"fontsize" : 9.0,
					"id" : "obj-88",
					"maxclass" : "newobj",
					"numinlets" : 2,
					"numoutlets" : 1,
					"outlettype" : [ "int" ],
					"patching_rect" : [ 258.0, 706.0, 54.0, 17.0 ],
					"text" : "+"
				}

			}
, 			{
				"box" : 				{
					"coll_data" : 					{
						"count" : 16,
						"data" : [ 							{
								"key" : 0,
								"value" : [ 0, 0, 0, 0, 0, 0, 0, 0, 0, 0, 0, 0, 0 ]
							}
, 							{
								"key" : 1,
								"value" : [ 1, 2, 3, 4, 5, 6, 7, 8, 9, 10, 11, 7, 2 ]
							}
, 							{
								"key" : 2,
								"value" : [ 2, 4, 6, 8, 10, 12, 14, 16, 18, 20, 22, 2, 4 ]
							}
, 							{
								"key" : 3,
								"value" : [ 3, 6, 9, 12, 15, 18, 21, 24, 27, 30, 33, 9, 5 ]
							}
, 							{
								"key" : 4,
								"value" : [ 4, 8, 12, 16, 20, 24, 28, 32, 36, 40, 44, 4, 7 ]
							}
, 							{
								"key" : 5,
								"value" : [ 5, 10, 15, 20, 25, 30, 35, 40, 45, 50, 55, 11, 9 ]
							}
, 							{
								"key" : 6,
								"value" : [ 6, 12, 18, 24, 30, 36, 42, 48, 54, 60, 66, 6, 11 ]
							}
, 							{
								"key" : 7,
								"value" : [ 7, 14, 21, 28, 35, 42, 49, 56, 63, 70, 77, 13, 12 ]
							}
, 							{
								"key" : 8,
								"value" : [ 8, 16, 24, 32, 40, 48, 56, 64, 72, 80, 88, 8, 14 ]
							}
, 							{
								"key" : 9,
								"value" : [ 9, 18, 27, 36, 45, 54, 63, 72, 81, 90, 99, 15, 16 ]
							}
, 							{
								"key" : 10,
								"value" : [ 10, 20, 30, 40, 50, 60, 70, 80, 90, 100, 110, 10, 17 ]
							}
, 							{
								"key" : 11,
								"value" : [ 11, 22, 33, 44, 55, 66, 77, 88, 99, 110, 121, 17, 19 ]
							}
, 							{
								"key" : 12,
								"value" : [ 12, 24, 36, 48, 60, 72, 84, 96, 108, 120, 132, 12, 21 ]
							}
, 							{
								"key" : 13,
								"value" : [ 13, 26, 39, 52, 65, 78, 91, 104, 117, 130, 143, 19, 23 ]
							}
, 							{
								"key" : 14,
								"value" : [ 14, 28, 42, 56, 70, 84, 98, 112, 126, 140, 154, 14, 24 ]
							}
, 							{
								"key" : 15,
								"value" : [ 15, 30, 45, 60, 75, 90, 105, 120, 135, 150, 165, 21, 26 ]
							}
 ]
					}
,
					"color" : [ 1.0, 0.4, 0.4, 1.0 ],
					"fontname" : "Arial",
					"fontsize" : 9.0,
					"id" : "obj-89",
					"maxclass" : "newobj",
					"numinlets" : 1,
					"numoutlets" : 4,
					"outlettype" : [ "", "", "", "" ],
					"patching_rect" : [ 243.0, 616.0, 59.5, 17.0 ],
					"saved_object_attributes" : 					{
						"embed" : 1
					}
,
					"text" : "coll 16grid 1"
				}

			}
, 			{
				"box" : 				{
					"id" : "obj-92",
					"maxclass" : "toggle",
					"numinlets" : 1,
					"numoutlets" : 1,
					"outlettype" : [ "int" ],
					"parameter_enable" : 0,
					"patching_rect" : [ 269.0, 70.0, 15.0, 15.0 ]
				}

			}
 ],
		"lines" : [ 			{
				"patchline" : 				{
					"destination" : [ "obj-2", 0 ],
					"disabled" : 0,
					"hidden" : 0,
					"source" : [ "obj-1", 0 ]
				}

			}
, 			{
				"patchline" : 				{
					"destination" : [ "obj-38", 0 ],
					"disabled" : 0,
					"hidden" : 0,
					"source" : [ "obj-10", 0 ]
				}

			}
, 			{
				"patchline" : 				{
					"destination" : [ "obj-15", 0 ],
					"disabled" : 0,
					"hidden" : 0,
					"source" : [ "obj-11", 0 ]
				}

			}
, 			{
				"patchline" : 				{
					"destination" : [ "obj-13", 1 ],
					"disabled" : 0,
					"hidden" : 0,
					"source" : [ "obj-12", 0 ]
				}

			}
, 			{
				"patchline" : 				{
					"destination" : [ "obj-72", 0 ],
					"disabled" : 0,
					"hidden" : 0,
					"source" : [ "obj-13", 0 ]
				}

			}
, 			{
				"patchline" : 				{
					"destination" : [ "obj-4", 0 ],
					"disabled" : 0,
					"hidden" : 0,
					"source" : [ "obj-14", 0 ]
				}

			}
, 			{
				"patchline" : 				{
					"destination" : [ "obj-89", 0 ],
					"disabled" : 0,
					"hidden" : 0,
					"source" : [ "obj-14", 0 ]
				}

			}
, 			{
				"patchline" : 				{
					"destination" : [ "obj-4", 1 ],
					"disabled" : 0,
					"hidden" : 0,
					"source" : [ "obj-15", 0 ]
				}

			}
, 			{
				"patchline" : 				{
					"destination" : [ "obj-87", 0 ],
					"disabled" : 0,
					"hidden" : 0,
					"source" : [ "obj-15", 0 ]
				}

			}
, 			{
				"patchline" : 				{
					"destination" : [ "obj-37", 0 ],
					"disabled" : 0,
					"hidden" : 0,
					"source" : [ "obj-17", 0 ]
				}

			}
, 			{
				"patchline" : 				{
					"destination" : [ "obj-17", 0 ],
					"disabled" : 0,
					"hidden" : 0,
					"source" : [ "obj-2", 0 ]
				}

			}
, 			{
				"patchline" : 				{
					"destination" : [ "obj-24", 0 ],
					"disabled" : 0,
					"hidden" : 0,
					"source" : [ "obj-23", 1 ]
				}

			}
, 			{
				"patchline" : 				{
					"destination" : [ "obj-39", 1 ],
					"disabled" : 0,
					"hidden" : 0,
					"source" : [ "obj-23", 0 ]
				}

			}
, 			{
				"patchline" : 				{
					"destination" : [ "obj-38", 1 ],
					"disabled" : 0,
					"hidden" : 0,
					"source" : [ "obj-24", 0 ]
				}

			}
, 			{
				"patchline" : 				{
					"destination" : [ "obj-23", 0 ],
					"disabled" : 0,
					"hidden" : 0,
					"source" : [ "obj-282", 0 ]
				}

			}
, 			{
				"patchline" : 				{
					"destination" : [ "obj-35", 0 ],
					"disabled" : 0,
					"hidden" : 0,
					"source" : [ "obj-34", 0 ]
				}

			}
, 			{
				"patchline" : 				{
					"destination" : [ "obj-42", 1 ],
					"disabled" : 0,
					"hidden" : 0,
					"source" : [ "obj-35", 1 ]
				}

			}
, 			{
				"patchline" : 				{
					"destination" : [ "obj-43", 1 ],
					"disabled" : 0,
					"hidden" : 0,
					"source" : [ "obj-35", 0 ]
				}

			}
, 			{
				"patchline" : 				{
					"destination" : [ "obj-40", 1 ],
					"disabled" : 0,
					"hidden" : 0,
					"source" : [ "obj-36", 1 ]
				}

			}
, 			{
				"patchline" : 				{
					"destination" : [ "obj-41", 1 ],
					"disabled" : 0,
					"hidden" : 0,
					"source" : [ "obj-36", 0 ]
				}

			}
, 			{
				"patchline" : 				{
					"destination" : [ "obj-8", 0 ],
					"disabled" : 0,
					"hidden" : 0,
					"source" : [ "obj-36", 2 ]
				}

			}
, 			{
				"patchline" : 				{
					"destination" : [ "obj-36", 0 ],
					"disabled" : 0,
					"hidden" : 0,
					"source" : [ "obj-37", 0 ]
				}

			}
, 			{
				"patchline" : 				{
					"destination" : [ "obj-11", 0 ],
					"disabled" : 0,
					"hidden" : 0,
					"source" : [ "obj-38", 0 ]
				}

			}
, 			{
				"patchline" : 				{
					"destination" : [ "obj-14", 0 ],
					"disabled" : 0,
					"hidden" : 0,
					"source" : [ "obj-39", 0 ]
				}

			}
, 			{
				"patchline" : 				{
					"destination" : [ "obj-42", 0 ],
					"disabled" : 0,
					"hidden" : 0,
					"source" : [ "obj-40", 0 ]
				}

			}
, 			{
				"patchline" : 				{
					"destination" : [ "obj-43", 0 ],
					"disabled" : 0,
					"hidden" : 0,
					"source" : [ "obj-41", 0 ]
				}

			}
, 			{
				"patchline" : 				{
					"destination" : [ "obj-10", 0 ],
					"disabled" : 0,
					"hidden" : 0,
					"source" : [ "obj-42", 0 ]
				}

			}
, 			{
				"patchline" : 				{
					"destination" : [ "obj-39", 0 ],
					"disabled" : 0,
					"hidden" : 0,
					"source" : [ "obj-43", 0 ]
				}

			}
, 			{
				"patchline" : 				{
					"destination" : [ "obj-70", 2 ],
					"disabled" : 0,
					"hidden" : 0,
					"source" : [ "obj-45", 0 ]
				}

			}
, 			{
				"patchline" : 				{
					"destination" : [ "obj-70", 0 ],
					"disabled" : 0,
					"hidden" : 0,
					"source" : [ "obj-46", 0 ]
				}

			}
, 			{
				"patchline" : 				{
					"destination" : [ "obj-69", 0 ],
					"disabled" : 0,
					"hidden" : 0,
					"source" : [ "obj-47", 0 ]
				}

			}
, 			{
				"patchline" : 				{
					"destination" : [ "obj-34", 0 ],
					"disabled" : 0,
					"hidden" : 0,
					"source" : [ "obj-5", 0 ]
				}

			}
, 			{
				"patchline" : 				{
					"destination" : [ "obj-40", 0 ],
					"disabled" : 0,
					"hidden" : 0,
					"source" : [ "obj-56", 1 ]
				}

			}
, 			{
				"patchline" : 				{
					"destination" : [ "obj-41", 0 ],
					"disabled" : 0,
					"hidden" : 0,
					"source" : [ "obj-56", 0 ]
				}

			}
, 			{
				"patchline" : 				{
					"destination" : [ "obj-66", 0 ],
					"disabled" : 0,
					"hidden" : 0,
					"source" : [ "obj-56", 2 ]
				}

			}
, 			{
				"patchline" : 				{
					"destination" : [ "obj-68", 0 ],
					"disabled" : 0,
					"hidden" : 0,
					"source" : [ "obj-56", 3 ]
				}

			}
, 			{
				"patchline" : 				{
					"destination" : [ "obj-56", 0 ],
					"disabled" : 0,
					"hidden" : 0,
					"source" : [ "obj-57", 0 ]
				}

			}
, 			{
				"patchline" : 				{
					"destination" : [ "obj-57", 0 ],
					"disabled" : 0,
					"hidden" : 0,
					"source" : [ "obj-58", 0 ]
				}

			}
, 			{
				"patchline" : 				{
					"destination" : [ "obj-58", 0 ],
					"disabled" : 0,
					"hidden" : 0,
					"source" : [ "obj-59", 0 ]
				}

			}
, 			{
				"patchline" : 				{
					"destination" : [ "obj-4", 2 ],
					"disabled" : 0,
					"hidden" : 0,
					"source" : [ "obj-65", 0 ]
				}

			}
, 			{
				"patchline" : 				{
					"destination" : [ "obj-82", 2 ],
					"disabled" : 0,
					"hidden" : 0,
					"source" : [ "obj-65", 0 ]
				}

			}
, 			{
				"patchline" : 				{
					"destination" : [ "obj-65", 0 ],
					"disabled" : 0,
					"hidden" : 0,
					"source" : [ "obj-66", 0 ]
				}

			}
, 			{
				"patchline" : 				{
					"destination" : [ "obj-65", 1 ],
					"disabled" : 0,
					"hidden" : 0,
					"source" : [ "obj-67", 0 ]
				}

			}
, 			{
				"patchline" : 				{
					"destination" : [ "obj-82", 1 ],
					"disabled" : 0,
					"hidden" : 0,
					"source" : [ "obj-68", 0 ]
				}

			}
, 			{
				"patchline" : 				{
					"destination" : [ "obj-70", 4 ],
					"disabled" : 0,
					"hidden" : 0,
					"source" : [ "obj-69", 0 ]
				}

			}
, 			{
				"patchline" : 				{
					"destination" : [ "obj-8", 1 ],
					"disabled" : 0,
					"hidden" : 0,
					"source" : [ "obj-7", 0 ]
				}

			}
, 			{
				"patchline" : 				{
					"destination" : [ "obj-13", 0 ],
					"disabled" : 0,
					"hidden" : 0,
					"source" : [ "obj-70", 0 ]
				}

			}
, 			{
				"patchline" : 				{
					"destination" : [ "obj-46", 1 ],
					"disabled" : 0,
					"hidden" : 0,
					"source" : [ "obj-71", 0 ]
				}

			}
, 			{
				"patchline" : 				{
					"destination" : [ "obj-59", 0 ],
					"disabled" : 0,
					"hidden" : 0,
					"source" : [ "obj-72", 0 ]
				}

			}
, 			{
				"patchline" : 				{
					"destination" : [ "obj-92", 0 ],
					"disabled" : 0,
					"hidden" : 0,
					"source" : [ "obj-8", 0 ]
				}

			}
, 			{
				"patchline" : 				{
					"destination" : [ "obj-19", 0 ],
					"disabled" : 0,
					"hidden" : 0,
					"source" : [ "obj-82", 0 ]
				}

			}
, 			{
				"patchline" : 				{
					"destination" : [ "obj-86", 0 ],
					"disabled" : 0,
					"hidden" : 0,
					"source" : [ "obj-83", 0 ]
				}

			}
, 			{
				"patchline" : 				{
					"destination" : [ "obj-85", 0 ],
					"disabled" : 0,
					"hidden" : 0,
					"source" : [ "obj-84", 0 ]
				}

			}
, 			{
				"patchline" : 				{
					"destination" : [ "obj-88", 1 ],
					"disabled" : 0,
					"hidden" : 0,
					"source" : [ "obj-85", 0 ]
				}

			}
, 			{
				"patchline" : 				{
					"destination" : [ "obj-88", 0 ],
					"disabled" : 0,
					"hidden" : 0,
					"source" : [ "obj-86", 0 ]
				}

			}
, 			{
				"patchline" : 				{
					"destination" : [ "obj-85", 1 ],
					"disabled" : 0,
					"hidden" : 0,
					"source" : [ "obj-87", 0 ]
				}

			}
, 			{
				"patchline" : 				{
					"destination" : [ "obj-82", 0 ],
					"disabled" : 0,
					"hidden" : 0,
					"source" : [ "obj-88", 0 ]
				}

			}
, 			{
				"patchline" : 				{
					"destination" : [ "obj-86", 1 ],
					"disabled" : 0,
					"hidden" : 0,
					"source" : [ "obj-89", 0 ]
				}

			}
, 			{
				"patchline" : 				{
					"destination" : [ "obj-45", 0 ],
					"disabled" : 0,
					"hidden" : 0,
					"source" : [ "obj-92", 0 ]
				}

			}
, 			{
				"patchline" : 				{
					"destination" : [ "obj-46", 0 ],
					"disabled" : 0,
					"hidden" : 0,
					"source" : [ "obj-92", 0 ]
				}

			}
 ],
		"dependency_cache" : [  ]
	}

}
